<svg id="Layer_1" data-name="Layer 1" xmlns="http://www.w3.org/2000/svg" width="145.61" height="276" viewBox="0 0 145.61 276">
  <defs>
    <style>
      .cls-1 {
        fill: #1d4481;
        stroke: #1a234e;
      }

      .cls-1, .cls-15, .cls-16, .cls-17, .cls-3, .cls-4, .cls-6, .cls-8 {
        stroke-miterlimit: 10;
      }

      .cls-2 {
        fill: #273472;
      }

      .cls-12, .cls-3 {
        fill: #fbd3c7;
      }

      .cls-3 {
        stroke: #453323;
      }

      .cls-16, .cls-17, .cls-3, .cls-4, .cls-6 {
        stroke-width: 0.5px;
      }

      .cls-4 {
        fill: #d81f25;
        stroke: #5b0c12;
      }

      .cls-5 {
        fill: #fecc51;
      }

      .cls-6 {
        fill: #fecb4b;
        stroke: #664f1c;
      }

      .cls-7 {
        fill: #4c2c17;
      }

      .cls-8 {
        fill: #f7edeb;
        stroke: #bf9b82;
      }

      .cls-9 {
        fill: #2d2b21;
      }

      .cls-10 {
        fill: #fff;
      }

      .cls-11 {
        fill: #3d2e17;
      }

      .cls-13 {
        fill: #453323;
      }

      .cls-14 {
        fill: #ef8d7d;
      }

      .cls-15 {
        fill: #1044a0;
        stroke: #143d84;
        opacity: 0.25;
      }

      .cls-16 {
        fill: none;
        stroke: #700418;
      }

      .cls-17 {
        fill: #6bcdf2;
        stroke: #245666;
      }
    </style>
  </defs>
  <g>
    <path class="cls-1" d="M64.05,107.35s-22,42.74-1.49,93.45c0,0-3.86,6.08-12.16.46,0,0-7.15,5.53-14.64-6.39,0,0-11.94-.48-13.32-5.75l3.88-6.89s-6.47-3-4.07-7,22.91-39.75,28.36-55.55S65.45,95.7,64.05,107.35Z"/>
    <path class="cls-2" d="M50.83,201.67s-4.72-50.18,4.29-75.82C55.12,125.85,43.42,150.45,50.83,201.67Z"/>
    <path class="cls-2" d="M24.8,184.41,53,123.08S32.87,171.71,24.8,184.41Z"/>
    <path class="cls-2" d="M35.76,194.87S41,152,55.88,117.32C55.88,117.32,42.05,158.64,35.76,194.87Z"/>
  </g>
  <path class="cls-3" d="M62.21,87.85a43.71,43.71,0,0,1-2.25,26l17.63-2.27,4-14.87Z"/>
  <g>
    <polygon class="cls-3" points="93.39 139.1 92.47 150.32 99.16 150.81 104.94 143.44 98.63 140.32 93.39 139.1"/>
    <g>
      <path class="cls-3" d="M92.19,139.42s1.22-1.6,5-2.14c0,0,3.21-4,5-2.55s-3,5.3-3,5.3,4.87.49,7.43,3.89a2.73,2.73,0,0,1-2.94,2.34s2.88,1.37-.83,3c0,0,1.31,2.65-2.64,3.13s-6.12.31-4.81-2.37l2-1.09s-2.82-1.44,1-3.27c0,0-3-1.37,0-2.63h5.33"/>
      <line class="cls-3" x1="97.01" y1="149.07" x2="102.81" y2="149.25"/>
      <line class="cls-3" x1="98.21" y1="145.25" x2="104.04" y2="146.38"/>
    </g>
    <g>
      <polygon class="cls-4" points="91.4 136.28 95.14 137.22 93.12 151.31 90.15 150.26 70.24 143.23 67.22 122.4 80.83 117.23 79.9 133.36 91.4 136.28"/>
      <polygon class="cls-5" points="95.14 137.22 93.12 151.31 90.15 150.26 91.4 136.28 95.14 137.22"/>
    </g>
    <path class="cls-3" d="M94.94,144.3s3.53-1,4.21-4.27"/>
  </g>
  <g>
    <polygon class="cls-4" points="85.27 176.78 85.44 201.89 79.83 219.27 67.92 211.55 70.76 185.93 85.27 176.78"/>
    <g>
      <path class="cls-6" d="M102,251.42C97.16,254.73,74.51,246,74.51,246l.87-23.9.06-1.58.21-5.84L82.4,205l.17-.3,3.9-7.06s1-2.18.07,7.14c-.08.77-.17,1.62-.28,2.56-.08.73-.17,1.5-.27,2.33-1.81,14.91-2,27.1-2,27.1a15.81,15.81,0,0,1,12.73,1.06C103.67,241.43,106.79,248.11,102,251.42Z"/>
      <path class="cls-6" d="M79.17,237.93S84,235.57,88,236.09"/>
      <path class="cls-7" d="M75.38,222.08l10.88-14.71c.11-.94.2-1.79.28-2.56L75.44,220.5Z"/>
    </g>
    <path class="cls-4" d="M55.58,181.86s7.38,36.89,7.75,45.8c0,0,12.7-14.86,17.17-26.82l.84-18.44S70.42,175.15,61,176.23,55.58,181.86,55.58,181.86Z"/>
    <path class="cls-6" d="M53.66,166.11s-.95,12.84,2.9,19.82c0,0,2.84-17.23,24.89-.67l3.94-5.45.5-7.49-13.38.49Z"/>
    <g>
      <g>
        <g>
          <path class="cls-6" d="M102.73,251.55c-1.84,3-7.2,5.48-21.31,3.27a60.86,60.86,0,0,0-10.52-.92,6.4,6.4,0,0,1-6.14-3.2,6.07,6.07,0,0,1-.65-2,8.81,8.81,0,0,1,.36-3.86c1-3.16-.11-9.69-1.15-14.5-.11-.52-.23-1-.33-1.51-.59-2.55-1.08-4.33-1.08-4.33s14.23-17.34,17.72-27.64c0,0,2.42-3.42.83,7.29,0,.22-.06.44-.1.67h0c-.14,1-.27,2.11-.39,3.28h0c-1.26,11.7-1.91,30.58-1.91,30.58s19.1-4.05,24.88,6.39C102.94,245.11,104.55,248.59,102.73,251.55Z"/>
          <path class="cls-7" d="M80.36,204.85c-.14,1-.27,2.11-.39,3.28h0a118.84,118.84,0,0,1-16.65,22.22c-.11-.53-.22-1-.33-1.51C66.61,224.58,74.9,214.44,80.36,204.85Z"/>
        </g>
        <path class="cls-6" d="M73,243.78s2.09-5.27,6.4-5"/>
      </g>
      <path class="cls-7" d="M102.73,251.55c-1.84,3-7.2,5.48-21.31,3.27a60.86,60.86,0,0,0-10.52-.92,6.4,6.4,0,0,1-6.14-3.2,24.41,24.41,0,0,0,8,1.29c6.65.12,22.29,3.88,29.4-.12Z"/>
    </g>
  </g>
  <path class="cls-4" d="M55.74,115.31c1.74,2.19,2.39,12.52,1.07,28.47-1.34,16.27-4.81,23.51-1.88,27.38S80.76,178,88.38,168.8c0,0,2-32.34-5.51-50.5s-21.09-15.64-21.09-15.64Z"/>
  <path class="cls-5" d="M85.38,127.88s-8.35-.48-2.89,6.56c0,0-1.92,3.84,4.53,6.57l.52,3.3s-8.61-3.58-7-9.81c0,0-6.19-7,4.19-9.51l1.13,3.14"/>
  <g>
    <g>
      <path class="cls-8" d="M89.9,89.8a14,14,0,0,0,7.92,4.6s.85.26,1.05-2.14S89.07,86.52,89.9,89.8Z"/>
      <path class="cls-3" d="M105.33,86c-1.89.72-3.18-.53-3.83,3-.23,1.25-.43,2.12-.59,2.72a4.33,4.33,0,0,1-.45,1.3A15,15,0,0,1,90,89.2l.17.32c.11.19.26.45.46.76,1.1,1.7,3.57,5,7.13,6.2,0,0,1.26.6.67,1.37a3.16,3.16,0,0,1-1.38.84c-3,1.15-2.14,4.71-5,7.53s-10,2.12-15.73-.88-13.3-9-16-18.55,4.54-31.3,4.54-31.3l7.7-6.43,8.17-1.67,19.91,3.7s6.86,9.2,4.63,16-4.2,9.52-1.14,13.61S107.22,85.32,105.33,86Z"/>
      <path class="cls-9" d="M54.33,35.22S57,25,72,24.83s22.66,5.65,22.66,5.65l-8.36.79s14.16,4,22.51,14.72-3.44,20.69-3.44,20.69a17.56,17.56,0,0,0-1-7.88,18.6,18.6,0,0,0-5.1-6.88S105,61.12,97,59.23A34.27,34.27,0,0,1,83.92,53s3,11.78-8,17.84l-1.37-8.67A32.39,32.39,0,0,1,62,78.64l-.08,8.29L59.92,97.59s-8.05-.77-17-19-5.39-33.54,8.35-37c0,0-3.4-4.21-11.1.12C40.17,41.72,42.62,33.37,54.33,35.22Z"/>
      <g>
        <g>
          <ellipse class="cls-10" cx="96.01" cy="77.44" rx="5.53" ry="3.24" transform="translate(-9.94 140.6) rotate(-69.69)"/>
          <path class="cls-11" d="M99.1,78.58c-.83,2.09-2.48,5-5.17,4.49-4.47-2-1.92-10,2-11.29,4.19-1.24,4.28,4.2,3.12,6.8Zm-.1,0c.68-2,1.12-5.11-1.09-6.22-4.08-1-7.57,8.37-3.79,10.23,2.4.61,4.12-2.08,4.88-4Z"/>
        </g>
        <ellipse class="cls-9" cx="97.35" cy="78.24" rx="3.62" ry="1.74" transform="translate(-9.82 142.37) rotate(-69.69)"/>
        <ellipse class="cls-10" cx="98.36" cy="75.84" rx="0.93" ry="0.59" transform="translate(-6.91 141.75) rotate(-69.69)"/>
        <path class="cls-9" d="M101.66,67.39s-3.13-6.46-10.89,1.79a11.38,11.38,0,0,1,9.73-5.64S104.45,64.31,101.66,67.39Z"/>
      </g>
      <g>
        <path class="cls-3" d="M63.71,78.44s-1.39-5.18-4.85-6.61-7.38,4.71-4.71,11.31,6.49,9.1,10.64,2.2"/>
        <path class="cls-3" d="M61.86,80.81S59,72.72,55.38,76.87"/>
        <g>
          <path class="cls-12" d="M60.25,78.15a4.19,4.19,0,0,0-2.17,5"/>
          <path class="cls-13" d="M60.26,78.17a6.71,6.71,0,0,0-2.15,4.94,3.94,3.94,0,0,1,.09-2.9,3.87,3.87,0,0,1,2.06-2Z"/>
        </g>
      </g>
      <g>
        <path class="cls-12" d="M90.7,87.45a2.9,2.9,0,0,1-3.33,2.21"/>
        <path class="cls-13" d="M90.72,87.45c.35,1.76-1.87,3.07-3.35,2.23v-.05a3.57,3.57,0,0,0,2.08-.47,3.19,3.19,0,0,0,1.27-1.71Z"/>
      </g>
      <path class="cls-14" d="M100.91,91.75a4.33,4.33,0,0,1-.45,1.3A15,15,0,0,1,90,89.2l.17.32a4.88,4.88,0,0,1-.33-.51,20.37,20.37,0,0,0,9.11,2.73c2.62,0,2,0,2,0Z"/>
      <path class="cls-14" d="M89.94,89.48s.06.17.18.46l-.21-.14Z"/>
      <path class="cls-14" d="M98.4,97.85a11.22,11.22,0,0,1-3.08-1.5,14.3,14.3,0,0,1-5.2-6.41l.48.34c1.1,1.7,3.57,5,7.13,6.2C97.73,96.48,99,97.08,98.4,97.85Z"/>
    </g>
    <g>
      <path class="cls-15" d="M64.67,74.27l6.43.26s2.54-2.94,16.55-4.35,15.43,2.3,14.6,8.82a2.44,2.44,0,0,0-2.54,2.94C100,85,88.47,86,71.3,77.27l-7.56-.49Z"/>
      <path class="cls-16" d="M64.67,74.27l6.43.26s2.54-2.94,16.55-4.35,15.43,2.3,14.6,8.82a2.44,2.44,0,0,0-2.54,2.94C100,85,88.47,86,71.3,77.27l-7.56-.49Z"/>
    </g>
  </g>
  <g>
    <path class="cls-17" d="M87.66,170.93s-.82.51-2.17,1.21c-.74.39-1.65.83-2.68,1.28a34.92,34.92,0,0,1-7.88,2.47,21.35,21.35,0,0,1-2.64.31h-.15a34.19,34.19,0,0,1-9-1.11c-1-.24-2-.51-2.92-.78-3.42-1-5.89-2-5.89-2s-2.49-3.09-1-5.67a40.77,40.77,0,0,0,6.25,2c.88.21,1.84.41,2.87.59a47,47,0,0,0,9,.74c.91,0,1.85-.07,2.79-.16a36,36,0,0,0,8-1.56c.9-.28,1.8-.61,2.7-1s1.72-.74,2.58-1.18C87.51,166.05,88.38,167.3,87.66,170.93Z"/>
    <path class="cls-6" d="M63.09,175.09c-1-.24-2-.51-2.92-.78l-.63-5.71c.88.21,1.84.41,2.87.59Z"/>
    <path class="cls-6" d="M74.93,175.89a21.35,21.35,0,0,1-2.64.31h-.15l-.7-6.27c.91,0,1.85-.07,2.79-.16Z"/>
    <path class="cls-6" d="M85.49,172.14c-.74.39-1.65.83-2.68,1.28l-.58-5.21c.9-.28,1.8-.61,2.7-1Z"/>
  </g>
  <path class="cls-4" d="M80.44,176.56s.08,3.12.86,9.86"/>
  <g>
    <g>
      <path class="cls-3" d="M88.26,154.13a7.85,7.85,0,0,1,6.19-1.71c3.62.64,4.93,2.23,6.84,1.68,0,0,1.72,1.92-1.21,3.33,0,0,2.41,1.26,1.7,2.62a2.34,2.34,0,0,1-1.75,1.42s2.38,3-1.49,4.5c0,0,1.77,2.7-2.26,3.38,0,0,1.08,3.15-4.19,2.31s-7.78-6.74-7.78-6.74l4-11"/>
      <path class="cls-3" d="M93.05,154.71s4.27,2.77,7,2.72"/>
    </g>
    <g>
      <path class="cls-4" d="M76.39,119.34l-3.61-1.93-.44-.23-6,21.14c8.35,9.81,14.84,13.33,18.71,14.57a10,10,0,0,0,4,.65c1.09,5.92-4.57,14.27-4.57,14.27-1.58-.38-3.11-.84-4.58-1.35a64.41,64.41,0,0,1-27.46-19.12c-3.1-10.09,2.56-35.14,5.52-38.91.55-.7,1.12-1.39,1.74-2h0c2.71-2.86,6.21-4.64,11.6.3C77.87,112.74,76.39,119.34,76.39,119.34Z"/>
      <path class="cls-5" d="M89,153.54c1.09,5.92-4.57,14.27-4.57,14.27-1.58-.38-3.11-.84-4.58-1.35,2-3.07,4.83-8.28,5.12-13.57A10,10,0,0,0,89,153.54Z"/>
      <path class="cls-5" d="M76.39,119.34l-3.61-1.93c-.07-4.87-2.45-7.09-2.45-7.09a10.44,10.44,0,0,0-10.65-3.94c2.71-2.86,6.21-4.64,11.6.3C77.87,112.74,76.39,119.34,76.39,119.34Z"/>
    </g>
  </g>
</svg>
