<svg id="Layer_1" data-name="Layer 1" xmlns="http://www.w3.org/2000/svg" width="220.24" height="211.43" viewBox="0 0 220.24 211.43">
  <defs>
    <style>
      .cls-1 {
        fill: #d81f25;
        stroke: #5b0c12;
      }

      .cls-1, .cls-11, .cls-12, .cls-13, .cls-15, .cls-16, .cls-3, .cls-4 {
        stroke-miterlimit: 10;
      }

      .cls-1, .cls-12, .cls-13, .cls-15, .cls-3 {
        stroke-width: 0.5px;
      }

      .cls-2 {
        fill: #fecc51;
      }

      .cls-3, .cls-8 {
        fill: #fbd3c7;
      }

      .cls-3 {
        stroke: #453323;
      }

      .cls-4 {
        fill: #f7edeb;
        stroke: #bf9b82;
      }

      .cls-5 {
        fill: #2d2b21;
      }

      .cls-6 {
        fill: #fff;
      }

      .cls-7 {
        fill: #3d2e17;
      }

      .cls-9 {
        fill: #453323;
      }

      .cls-10 {
        fill: #ef8d7d;
      }

      .cls-11 {
        fill: #1044a0;
        stroke: #143d84;
        opacity: 0.25;
      }

      .cls-12 {
        fill: none;
        stroke: #700418;
      }

      .cls-13 {
        fill: #fecb4b;
        stroke: #664f1c;
      }

      .cls-14 {
        fill: #4c2c17;
      }

      .cls-15 {
        fill: #6bcdf2;
        stroke: #245666;
      }

      .cls-16 {
        fill: #1d4481;
        stroke: #1a234e;
      }

      .cls-17 {
        fill: #273472;
      }
    </style>
  </defs>
  <path class="cls-1" d="M147.23,86.59s-.29,20.09-28.66,48.27c0,0-20-3.43-25.89-20.47l25.7-37.89Z"/>
  <path class="cls-2" d="M141.71,102.68s-4.86-2-6.1,2.09-.85,5.24-.85,5.24-3.24.57,0,5.52l-1.53,1.62s-3.52-5.52-.09-8.57a8.75,8.75,0,0,1,2.09-6.66c2.67-3,7.62-1.14,7.62-1.14Z"/>
  <g>
    <path class="cls-3" d="M140.06,81.46S133.25,80,129.13,84.7s-8.32-12.09-8.32-12.09l7.46-15.31,11.27,3Z"/>
    <g>
      <path class="cls-4" d="M155.81,70.86a13.93,13.93,0,0,0,7,5.9s.79.41,1.41-1.92S155.56,67.49,155.81,70.86Z"/>
      <path class="cls-3" d="M171.65,69.83c-2,.37-3-1.08-4.28,2.28-.45,1.19-.8,2-1.05,2.58a5.06,5.06,0,0,1-.67,1.2A15,15,0,0,1,156,70.28a2.44,2.44,0,0,0,.11.35c.08.2.18.48.33.82.78,1.87,2.65,5.5,5.94,7.35,0,0,1.14.8.42,1.46a3,3,0,0,1-1.5.59c-3.13.62-2.93,4.27-6.23,6.55s-10.26.35-15.33-3.6-11.55-11.14-12.54-21,9.91-30.05,9.91-30.05l8.69-5,8.34-.23,19,7.09s5.17,10.25,1.79,16.56-5.78,8.64-3.48,13.21S173.64,69.45,171.65,69.83Z"/>
      <path class="cls-5" d="M130.24,10.94s4.43-9.63,19.17-7.18,21.33,9.5,21.33,9.5l-8.36-.68S175.63,19,182,31s-7,19.77-7,19.77a17.52,17.52,0,0,0,.43-7.92,18.55,18.55,0,0,0-3.83-7.66s4,10-3.51,6.81a34.17,34.17,0,0,1-11.81-8.43s.94,12.13-11,16.17l.15-8.77A32.36,32.36,0,0,1,130.22,55l-1.52,8.15-3.77,10.16s-7.8-2.14-13.45-21.63.5-34,14.63-35c0,0-2.62-4.74-11-1.81C115.16,14.88,119,7.08,130.24,10.94Z"/>
      <g>
        <g>
          <ellipse class="cls-6" cx="163.97" cy="59.75" rx="5.53" ry="3.24" transform="matrix(0.5, -0.86, 0.86, 0.5, 29.67, 171.18)"/>
          <path class="cls-7" d="M166.81,61.4c-1.18,1.92-3.31,4.53-5.87,3.53-4.05-2.78-.16-10.18,4-10.77,4.34-.49,3.48,4.88,1.89,7.24Zm-.09,0c1-1.81,2-4.84,0-6.31-3.84-1.75-8.9,6.93-5.5,9.41,2.26,1,4.41-1.33,5.5-3.1Z"/>
        </g>
        <ellipse class="cls-5" cx="165.14" cy="60.76" rx="3.62" ry="1.74" transform="translate(29.37 172.7) rotate(-59.7)"/>
        <ellipse class="cls-6" cx="166.56" cy="58.57" rx="0.93" ry="0.59" transform="translate(31.96 172.83) rotate(-59.7)"/>
        <path class="cls-5" d="M171.27,50.83s-2-6.91-11-.12a11.34,11.34,0,0,1,10.55-3.87S174.55,48.28,171.27,50.83Z"/>
      </g>
      <g>
        <path class="cls-3" d="M132,55.13s-.48-5.34-3.64-7.35-8.09,3.36-6.59,10.32,4.8,10.09,10.09,4"/>
        <path class="cls-3" d="M129.74,57.15s-1.36-8.46-5.69-5"/>
        <g>
          <path class="cls-8" d="M128.62,54.24a4.19,4.19,0,0,0-3,4.52"/>
          <path class="cls-9" d="M128.63,54.27a6.73,6.73,0,0,0-3,4.49,4,4,0,0,1,.6-2.84,3.84,3.84,0,0,1,2.38-1.65Z"/>
        </g>
      </g>
      <g>
        <path class="cls-8" d="M157,68.68a2.88,2.88,0,0,1-3.66,1.6"/>
        <path class="cls-9" d="M157,68.69c0,1.79-2.37,2.69-3.69,1.61l0,0a3.52,3.52,0,0,0,2.13-.1c.93-.39,1.08-.85,1.54-1.46Z"/>
      </g>
      <path class="cls-10" d="M166.32,74.69a5.06,5.06,0,0,1-.67,1.2A15,15,0,0,1,156,70.28a2.44,2.44,0,0,0,.11.35,5.2,5.2,0,0,1-.24-.56,20.39,20.39,0,0,0,8.5,4.26c2.59.41,1.94.33,1.94.33Z"/>
      <path class="cls-10" d="M155.9,70.55s0,.18.09.49l-.17-.18Z"/>
      <path class="cls-10" d="M162.78,80.26a11.06,11.06,0,0,1-2.77-2A14.38,14.38,0,0,1,156,71l.43.41c.78,1.87,2.65,5.5,5.94,7.35C162.36,78.8,163.5,79.6,162.78,80.26Z"/>
    </g>
    <g>
      <path class="cls-11" d="M133.65,51.2l6.28,1.36s3-2.46,17.06-1.41,14.8,4.94,12.85,11.22a2.44,2.44,0,0,0-3,2.45c-.22,3.05-11.77,2.07-27.17-9.53L132.3,53.5Z"/>
      <path class="cls-12" d="M133.65,51.2l6.28,1.36s3-2.46,17.06-1.41,14.8,4.94,12.85,11.22a2.44,2.44,0,0,0-3,2.45c-.22,3.05-11.77,2.07-27.17-9.53L132.3,53.5Z"/>
    </g>
  </g>
  <g>
    <path class="cls-3" d="M173.22,63.36s1.81-4.28,4.19-5.52c0,0,1-.57,3.8-.09,0,0,2.76-2.1,4.38-.38,0,0,.76.66-.19,2.85,0,0,2.76,0,1.81,3.43,0,0,1.52.28.67,3.52,0,0,1.71,2.1-2.29,3.9a43.88,43.88,0,0,1-8.28,2.67l-4.57-10.09"/>
    <line class="cls-3" x1="173.93" y1="63.08" x2="181.5" y2="57.79"/>
  </g>
  <g>
    <path class="cls-1" d="M113.43,139.52s-5.14,13.33-13.52,18.66-16.37-5.52-16.37-5.52Z"/>
    <g>
      <g>
        <path class="cls-13" d="M98.49,155.8c12.47,2,1,4.19,1,4.19-11.62,4.66-37,13.42-37,13.42s10.38,8,6.47,21.23c0,0-1.61,5.38-6.66,4.91l-.47-.06c-5.43-.85-11.15-5.56-11.57-17.27a26.31,26.31,0,0,0-3-9.43c-1.9-3.37-1.31-6.89,1.49-9a9.3,9.3,0,0,1,3.8-1.6c3.45-.67,9.06-4.94,13.06-8.32l1.26-1.06c2.1-1.83,3.53-3.18,3.53-3.18Z"/>
        <path class="cls-14" d="M62.31,199.55l-.47-.06c-5.43-.85-11.15-5.56-11.57-17.27a26.31,26.31,0,0,0-3-9.43c-1.9-3.37-1.31-6.89,1.49-9-.43,2-.54,5.6,1.65,11a60.84,60.84,0,0,1,2.48,12.85C53.41,193.55,59.6,197.92,62.31,199.55Z"/>
        <path class="cls-14" d="M100.68,158.85c-1,.37.3.76-.86,1.23H99c-7-.27-21.92-2.91-33.34-6.18l1.26-1.06C72.7,154.11,88.94,158.51,100.68,158.85Z"/>
      </g>
      <path class="cls-13" d="M57.84,169.7s2.47.09,4.38,4.28"/>
    </g>
    <path class="cls-1" d="M89.16,121.91s-24,26.08-29.42,32.37,33.23,3,33.23,3,4.85-5.71,10.28-17.42l1.71-4.28"/>
    <g>
      <g>
        <path class="cls-13" d="M88.54,160.46l-.69.24h0c-1,.38-2.11.8-3.28,1.28h0c-11.62,4.66-29.71,13.47-29.71,13.47s6.71,10.86,3.85,22.71c0,0-1.62,5.38-6.66,4.91l-.47,0c-5.43-.86-11.15-5.57-11.58-17.28a26.18,26.18,0,0,0-3-9.43c-1.9-3.36-1.31-6.89,1.49-9a9.25,9.25,0,0,1,3.79-1.6c3.46-.67,9.07-4.94,13.07-8.31l1.26-1.07c2.1-1.83,3.52-3.18,3.52-3.18S83.54,157.9,95,156C95,156,99.39,156.61,88.54,160.46Z"/>
        <path class="cls-14" d="M52,203.07l-.47,0c-5.43-.86-11.15-5.57-11.58-17.28a26.18,26.18,0,0,0-3-9.43c-1.9-3.36-1.31-6.89,1.49-9-.43,2-.54,5.6,1.65,11a60.84,60.84,0,0,1,2.48,12.85C43.12,197.08,49.32,201.44,52,203.07Z"/>
        <path class="cls-14" d="M87.84,160.7c-1,.38-2.11.8-3.28,1.28h0a125.84,125.84,0,0,1-29.21-4.55l1.26-1.07C62.41,157.63,76.1,160.36,87.84,160.7Z"/>
      </g>
      <path class="cls-13" d="M47.56,173.22s6-.67,7.9,3.52"/>
    </g>
    <path class="cls-13" d="M92.2,118.39s-4,2-8.28,9.23c0,0,15.9-8,16.28,18.09a26.74,26.74,0,0,1,12.09-3.43l3.52-3.62Z"/>
    <g>
      <path class="cls-15" d="M121.05,133.24c-3,5.71-5.9,6.09-5.9,6.09l-1.63-.62c-1-.39-1.89-.79-2.78-1.21a47.64,47.64,0,0,1-8-4.69c-.94-.68-1.82-1.37-2.63-2.05a39,39,0,0,1-5.49-5.69c-.66-.84-1.2-1.6-1.66-2.31a22,22,0,0,1-2-3.61l4-5.52c.91,1.49,1.83,2.87,2.74,4.15.61.84,1.22,1.64,1.83,2.39a47.14,47.14,0,0,0,5.19,5.54c.79.72,1.57,1.36,2.33,2a29.36,29.36,0,0,0,8.22,4.53,19.94,19.94,0,0,0,3.19.83A12.33,12.33,0,0,0,121.05,133.24Z"/>
      <path class="cls-13" d="M99.54,120.17l-5,4.9c-.66-.84-1.2-1.6-1.66-2.31l4.79-5C98.32,118.62,98.93,119.42,99.54,120.17Z"/>
      <path class="cls-13" d="M107.06,127.66l-4.36,5.15c-.94-.68-1.82-1.37-2.63-2.05l4.66-5C105.52,126.43,106.3,127.07,107.06,127.66Z"/>
      <path class="cls-13" d="M118.47,133l-5,5.69c-1-.39-1.89-.79-2.78-1.21l4.54-5.31A19.94,19.94,0,0,0,118.47,133Z"/>
    </g>
  </g>
  <g>
    <path class="cls-1" d="M178.73,73.46,175,75.72l-20.6,12.39L129,88.87a.85.85,0,0,1-.17.16c-6.92,6.75-9.72-1.48-9.72-1.48-4.38-12.57,7-16,7-16H127l24.7.18,19.08-8.3,2.82-1.22Z"/>
    <polygon class="cls-13" points="178.74 73.46 174.97 75.72 170.78 63.44 173.6 62.22 178.74 73.46"/>
    <path class="cls-13" d="M128.87,89c-6.92,6.75-9.72-1.48-9.72-1.48-4.38-12.57,7-16,7-16H127c-2.36,2.22-5.82,6.43-5.19,11.41C122.37,87.31,126,88.66,128.87,89Z"/>
  </g>
  <g>
    <path class="cls-16" d="M129.38,71.79s-7,5.42-18.14,20.28-13.28,27.27-48,56c0,0-9.42,3.57-10.13-9.71,0,0-6.57-12.42,4.85-23.13,0,0-10-7.14-7.57-12,0,0-1.76-1.47,13.38-3.85,0,0-2.53-7.81,1.09-14.09S71.64,79,71.64,79s3,6.57,12.38,7.62,23.65-7.24,23.65-7.24,10.24-6.9,16.71-8S129.38,71.79,129.38,71.79Z"/>
    <path class="cls-17" d="M53.17,140s34.37-20.09,53.6-45.32C106.77,94.68,74.31,128,53.17,140Z"/>
    <path class="cls-17" d="M57.17,114.29s21.23-5.23,47.41-28.94C104.58,85.35,79.35,112.1,57.17,114.29Z"/>
    <path class="cls-17" d="M62.6,99.25s32.08-7.8,44.55-19.32C107.15,79.93,81.73,99.44,62.6,99.25Z"/>
  </g>
</svg>
