<svg xmlns="http://www.w3.org/2000/svg" xmlns:xlink="http://www.w3.org/1999/xlink" width="199.06" height="158.71" viewBox="0 0 199.06 158.71">
  <defs>
    <style>
      .cls-1 {
        fill: none;
      }

      .cls-2 {
        isolation: isolate;
      }

      .cls-3 {
        clip-path: url(#clip-path);
      }

      .cls-4 {
        clip-path: url(#clip-path-2);
      }

      .cls-5 {
        fill: url(#linear-gradient);
      }

      .cls-6 {
        clip-path: url(#clip-path-3);
      }

      .cls-7 {
        clip-path: url(#clip-path-4);
      }

      .cls-8 {
        fill: #6de2fe;
      }

      .cls-9 {
        fill: #387f69;
      }

      .cls-10 {
        fill: #b3c661;
      }

      .cls-11 {
        opacity: 0.3;
      }

      .cls-12 {
        clip-path: url(#clip-path-5);
      }

      .cls-13 {
        mix-blend-mode: multiply;
      }

      .cls-14 {
        fill: #84e75a;
      }

      .cls-15 {
        clip-path: url(#clip-path-7);
      }

      .cls-16 {
        opacity: 0.21;
      }

      .cls-17 {
        clip-path: url(#clip-path-8);
      }

      .cls-18 {
        fill: #23490f;
      }

      .cls-19 {
        opacity: 0.56;
      }

      .cls-20 {
        clip-path: url(#clip-path-9);
      }

      .cls-21 {
        clip-path: url(#clip-path-10);
      }

      .cls-22 {
        fill: url(#radial-gradient);
      }

      .cls-23 {
        clip-path: url(#clip-path-11);
      }

      .cls-24 {
        clip-path: url(#clip-path-12);
      }

      .cls-25 {
        fill: #ffea50;
      }

      .cls-26 {
        fill: #934f2a;
      }

      .cls-27 {
        fill: #bc6c37;
      }

      .cls-28 {
        fill: #7a3c21;
      }

      .cls-29 {
        fill: #a3562b;
      }

      .cls-30 {
        fill: #ffa403;
      }

      .cls-31 {
        fill: #ffdd17;
      }

      .cls-32 {
        fill: #1d1d1b;
        opacity: 0.1;
      }

      .cls-33 {
        fill: #d68d18;
      }
    </style>
    <clipPath id="clip-path">
      <rect class="cls-1" x="2004.02" y="3508.5" width="1280" height="720"/>
    </clipPath>
    <clipPath id="clip-path-2">
      <rect class="cls-1" x="1844.02" y="3418.5" width="1600" height="900"/>
    </clipPath>
    <linearGradient id="linear-gradient" x1="-2972.98" y1="5520.48" x2="-2972.98" y2="-1463.37" gradientUnits="userSpaceOnUse">
      <stop offset="0" stop-color="#a4f2ff"/>
      <stop offset="0.23" stop-color="#69e3ff"/>
      <stop offset="0.45" stop-color="#34d5ff"/>
      <stop offset="0.57" stop-color="#1fd0ff"/>
      <stop offset="0.65" stop-color="#25c3ff"/>
      <stop offset="0.81" stop-color="#36a2ff"/>
      <stop offset="1" stop-color="#4d73ff"/>
    </linearGradient>
    <clipPath id="clip-path-3">
      <rect class="cls-1" x="1977.15" y="-566.17" width="1280" height="720"/>
    </clipPath>
    <clipPath id="clip-path-4">
      <rect class="cls-1" x="1804.44" y="-647.7" width="1600" height="900"/>
    </clipPath>
    <clipPath id="clip-path-5">
      <rect class="cls-1" x="-4741.79" y="-58.2" width="8468.38" height="314.12"/>
    </clipPath>
    <clipPath id="clip-path-7">
      <rect class="cls-1" x="-4803.03" y="-646.77" width="12896.26" height="900"/>
    </clipPath>
    <clipPath id="clip-path-8">
      <rect class="cls-1" x="-1399.52" y="-135.49" width="1885.03" height="374.76"/>
    </clipPath>
    <clipPath id="clip-path-9">
      <rect class="cls-1" x="-1324.08" y="-122.81" width="1712.33" height="374.76"/>
    </clipPath>
    <clipPath id="clip-path-10">
      <path class="cls-1" d="M-295.7-111.88c24.45,11,47.5,14,73.49,14A544.83,544.83,0,0,1-119-88.32l-15.39,11.45q24.72,5.52,49,13.39c4,1.31,9,3.83,8.18,9.59a8.31,8.31,0,0,1-3.91,6.09l-31,18.13c-2.15,1.25-4.56,2.87-4.24,6.33a5.89,5.89,0,0,0,4.79,5.5c63,8.1,126.41,15.92,187.6,36a9.19,9.19,0,0,1,5.9,7.59C83.44,36.53,67,36,61.47,45A159.62,159.62,0,0,1,111,53c3.35,1.1,7.14,2.74,7.23,8a10.19,10.19,0,0,1-3.12,7.51A92.3,92.3,0,0,1,80,89.53c56,3.56,111.45,18.74,163.23,44.66,6.6,3.3,14.14,8.22,12.82,18.29a17.51,17.51,0,0,1-4.78,10C235,178.9,214.5,186.69,194.41,194.21c61.36,5,122,21.89,179,49.75,2.88,1.4,6,3.14,7.26,6.57a7.71,7.71,0,0,1,.54,2.7H-1310.14V209.54l8.35,1.66S-1174,161.1-1093,177a.42.42,0,0,0,0-.8c-40.67-6.6-110.33-37-149.77-50.72-8.48-2.94-18.94-9.44-16.22-20.69.87-3.62,4-7.82,6.88-9.38,46.21-25.43,155.07-17.66,109.9-29.7-25.62-6.83,75.51-23.87,103.8-28.82-6.48.17-49.91-7.66-26.87-23.16,10.4-3.91,64.19-22,70.59-23.24,47.15-9.25,80.71-7,119.06-4.83,19.21,1.11,48.2,6.22,72.12,5.89-3.21-5.05-57.43-24.39-40.49-30.16C-787.34-57.87-750.44-77.9-714.2-77c50.19,1.3,110.63-11,161.44-15.66-4.94-3.49-3.84-13.26.64-17.56s10.64-4.65,16.35-4.82l178.58-5.45c4.82-.14,9.47-.26,14-.26,16.31,0,31.27,1.53,47.47,8.83"/>
    </clipPath>
    <radialGradient id="radial-gradient" cx="-7934.46" cy="254.18" r="1" gradientTransform="matrix(608.17, 0, 0, -367.21, 4825071.54, 93407.72)" gradientUnits="userSpaceOnUse">
      <stop offset="0" stop-color="#61dfff"/>
      <stop offset="0.14" stop-color="#5adaff"/>
      <stop offset="0.35" stop-color="#47caff"/>
      <stop offset="0.59" stop-color="#28b1ff"/>
      <stop offset="0.84" stop-color="#0091ff"/>
      <stop offset="1" stop-color="#0091ff"/>
    </radialGradient>
    <clipPath id="clip-path-11">
      <rect class="cls-1" x="-6626.46" y="-642.54" width="11490.43" height="900"/>
    </clipPath>
    <clipPath id="clip-path-12">
      <rect class="cls-1" x="151.94" y="-131.26" width="1679.54" height="374.76"/>
    </clipPath>
  </defs>
  <g class="cls-2">
    <g id="Layer_1" data-name="Layer 1">
      <g class="cls-3">
        <g class="cls-4">
          <rect class="cls-5" x="-9568.83" y="-283.89" width="13191.7" height="5525.81"/>
        </g>
      </g>
      <g class="cls-6">
        <g class="cls-7">
          <path class="cls-8" d="M4025.18,81.69l0-92.72V-41.41L4025-500.08l0-147.62-15622.49.31.06,186.17h0l0,129.29v105l0,63.92v1.62c1.21.12,1.78,4,2,9.52.19,5.81,0,13.52-.42,20.89-.35,7.21-.82,14.11-1.14,18.58h0c-.19,2.48-.35,4.21-.38,4.83v0a1,1,0,0,0,0,.24s0,0,.07,0c.41.59,5.24,6.8,7.85,7.15l0,89.06,0,59.93c4.38,15.44,6.55,30.05,2.35,46.16q-1.14,4.36-2.33,8.72l0,140.52v8h237.48L3677.77,252H4017.3l0-163.8h7.92Z"/>
          <path class="cls-9" d="M3658.39-332.63V125.89H170.2v-393.8a2.34,2.34,0,0,1,.35.13,43.12,43.12,0,0,1,10.07,2c.5.18,1,.36,1.45.56,2.51,1.06,4.53,2.48,5.48,4.13l.39-.06H188a2,2,0,0,1-.06-.26v0a8.4,8.4,0,0,1,.09-4.61h0a8.28,8.28,0,0,1,1.11-2.28,15.23,15.23,0,0,1,8.56-5.37c5.28-1.45,11.6-1.12,17.4-.5l.22-.31a24,24,0,0,1-10.75-5.12c-1.15-1.08-2-2.28-1.94-3.51a2.65,2.65,0,0,1,.14-.62c.73-2.18,4.46-3.91,8.51-4.54a47,47,0,0,1,9.8-.28l1,.06c.43,0,.86.05,1.28.09l1.55.11.53-.91a18.13,18.13,0,0,1-2.08-.71c-.29-.11-.58-.24-.84-.37s-.49-.24-.73-.37c-3.3-1.76-5.17-4.33-4.63-6.83.44-2,2.2-3.8,4.18-5.48.65-.55,1.32-1.09,2-1.6s1.49-1.08,2.28-1.6l.13-.09c.8-.53,1.64-1,2.49-1.56s1.91-1.07,2.91-1.58l-.16-.21-4.12,1.05c-.28.08-.56.15-.85.21h0c-.88.24-1.76.46-2.64.68l-9.87,2.53c-5.38,1.37-11,2.76-16.89,2.74a27,27,0,0,1-8.2-1.26c-2.65-.86-4.69-2.16-5.36-3.79-1-2.29,1-4.73,4.09-6.4.27-.15.55-.29.83-.42a50.94,50.94,0,0,1,10.23-3.25c8.2-2,16.61-3.69,25.17-5.11,1.51-.26,3-.5,4.55-.73.78-.13,1.55-.25,2.33-.36l-.35-.7c-.62.07-1.26.13-1.89.15a27.83,27.83,0,0,1-4.64-.25,41.21,41.21,0,0,1-4.37-.86c-6-1.55-11.51-4.39-11.95-8-.22-1.79.88-3.57,2.42-5.17,3.09-3.17,8-5.78,13.9-7.39l1.75-.44.49-.45.3-.29a2.71,2.71,0,0,1-.41,0l-2.13-.21A56,56,0,0,1,209-350.63c-4.89-1.95-8.62-4.94-9-8.22-.46-3.47,3-6.81,8.13-8.89h0a29.84,29.84,0,0,1,6.48-1.76,40.91,40.91,0,0,1,8.07-.45l.68,0a46.2,46.2,0,0,1,11.26,2l.37.11c.7.22,1.37.46,2,.71s1.53.61,2.25.94c-.3-2.39,1.23-4.6,3.76-6.56h0a27.07,27.07,0,0,1,4.23-2.63h0c1-.5,2-1,3-1.42s2.1-.86,3.16-1.24c.58-.21,1.16-.42,1.75-.61a44.25,44.25,0,0,1,9.24-2.15h0l.48-.06a30.79,30.79,0,0,1,5.84,0,19.83,19.83,0,0,1,6.14,1.46,8.2,8.2,0,0,1,4.39,4.11,8.37,8.37,0,0,1,.3,5.23,17.77,17.77,0,0,1-1.92,4.72l1.75.53A38.79,38.79,0,0,1,293.12-371l1.11-.32a30.36,30.36,0,0,1,4.95-.93,28.92,28.92,0,0,1,9.87.47,16.62,16.62,0,0,1,2.07.63,10.44,10.44,0,0,1,4.42,2.89,4.87,4.87,0,0,1,1,1.8c.53,1.84-.39,3.77-2.44,5.25l1.29.51,4.7-1.84a35.76,35.76,0,0,1,10.84-2.86,14.66,14.66,0,0,1,7.91,1.53c-1-7.12,4-14.46,13.44-19.44a28.82,28.82,0,0,1,15-3.55c6.83.42,11.78,4,12.91,7.68s-.72,7.39-2.66,11a16.14,16.14,0,0,1-2.35,3.5l.5.14,10.57-4.27a24.13,24.13,0,0,1,5.37-1.69c5.31-.87,10.79,1,15,3,5.52,2.65,10.62,5.93,11.58,9.91,4-5,15-8.14,24.94-7l.5-.33c-5.69-2.57-10-6.17-10-10.13s4.27-7.49,10.25-9.59,13.41-2.75,20.47-2.32h2.18c-3.51-2.9-6.63-6-7.61-9.47s.44-7.19,5-9.64A30.25,30.25,0,0,1,474.07-409c8.15-1.05,17.28-.19,23.72,2.7,5.88,2.64,9.11,7,7.76,11a43.26,43.26,0,0,1,15-8.06,50,50,0,0,1,17.08-2.56c6,.23,12,2,14.69,4.87s1.94,6.41.29,9.54a33.64,33.64,0,0,1-9.07,10.44l.61.23a53.16,53.16,0,0,1,8.24-2.9,24,24,0,0,1,9.59-.43c4.31.78,7.06,3,9.48,5.12,2.21,1.92,4.45,3.89,5.39,6.09s.5,4.44.06,6.68l-.1.49a4.83,4.83,0,0,1-1.59,2.84,56.42,56.42,0,0,1,16-5.71h.05a76,76,0,0,1,13.16-1.56l.22-.06c-2-1.8-3.38-3.76-3.66-5.82-.28-2.26,1-4.65,3.92-6.26s7.2-2.26,11.34-2.32a100.57,100.57,0,0,1,12.3.87,3.5,3.5,0,0,0,1.37,0,1.2,1.2,0,0,0,.69-.6c1.82-2.82,3.42-5.84,7.29-8s10.79-3.07,14.88-1a8.73,8.73,0,0,1,2.95,2.42,18.87,18.87,0,0,1,3.33,5.45,14.79,14.79,0,0,1,5.5-6.27,28.69,28.69,0,0,1,15-4.66c6-.18,12.23,1.8,13.84,4.89a4.08,4.08,0,0,1,.35,2.79l1.23-.18c8.61-2.13,20,0,24.35,4.59A37.49,37.49,0,0,1,740-395.06c9-1.59,20.29.06,24.74,4.54a16.93,16.93,0,0,1,1.51-6.46c2.83-5.66,11.42-10.27,21.67-12.17a72.64,72.64,0,0,1,31.48,1.48c7.58,2.1,14.54,6.08,13.8,10.68-.31,1.81-1.8,3.51-3.42,5.1A27.88,27.88,0,0,1,818.41-385l.1.06a46.89,46.89,0,0,1,16,.17c5,1.12,9.09,3.85,8.72,6.79a6,6,0,0,1-1.09,2.44A16.32,16.32,0,0,1,839-372h0a17.79,17.79,0,0,1-2.7,1.78,23.07,23.07,0,0,1-8.57,2.55c2.14.23,4.26.48,6.39.72a52.2,52.2,0,0,1,10.6,1.95c3.16,1.1,5.62,3,5.3,5a5.14,5.14,0,0,1-2.19,2.86c-3.59,2.74-9.59,4.33-15.69,4.89a113.51,113.51,0,0,1-18.43-.2l-.06.3a64.69,64.69,0,0,1,11,2.57c3.05,1,6,2.36,7,4.23.9,1.59.2,3.34-1.18,4.81-3.49,3.71-10.77,5.83-17.74,7.55a49.33,49.33,0,0,1-11.21,1.74,52.15,52.15,0,0,1-13-1.89l-.59.75a19.52,19.52,0,0,1,7.63,3.64,24.91,24.91,0,0,1,5.17,4.28c1.18,1.45,1.7,3.14.92,4.68l2.55.46c2.18-4.78,11.63-8.23,20.64-7.55s16.33,5.42,16,10.35c2.73-1.86,7.61-2.35,12-2.16.85,0,1.68.09,2.51.17-13-7.73-18.07-18.78.33-26.39a49.36,49.36,0,0,1,31.22-2.4c12.49,3.13,22.32,10.77,26.48,18.42,5.82-5.58,20.63-8.72,31.79-6.07,1-6.74,14.78-10.62,26.12-8.56-9.88-7.92-18.86-20-6.78-28.72,9.52-6.95,29.78-5.34,40.13,0,12.22,6.29,14.5,16.21,16.14,24.8,5.8-5.53,16.83-9.83,29.08-9.18-8.11-6.69-9.24-15,.94-21.29,10.75-6.65,29.69-8.92,39.44-.41,3-7.48,13.66-13.84,28.47-14,31.17,0,38.08,21.46,31.57,34.16,8.91-3.36,15.89-2.92,21.09-.56a20.7,20.7,0,0,1,11.39,14.28h0a16.44,16.44,0,0,1,.41,4l1.21-.78c4.61-3,11.27-6.85,18.81-5.81-3.27-10.95-.7-21.81,21.62-26,11.85-2.22,20.39,0,25.11,4.06a11.36,11.36,0,0,1,3,14.08c15.11-8.33,38.9-9.31,47.56,1.26a37.57,37.57,0,0,1,4.16-1.86c22-8.51,37.78,3.11,51.51,12,1.13.74,2.26,1.45,3.36,2.13-2-7.61,2.73-20.88,22.46-22.48s27.88,11.18,33.77,20.77c15-12.29,30.39-5.66,37.88,1.71,2-4.79,8.62-17.43,22.22-21.86s34-5.88,49.66-5.27c-11.11-4.92-18.59-17.8-9.74-23.34s24.94-3.19,41.94,5c-3.17-9.7,2.27-27.38,30.18-26.51s27,25.15,20,35.58c.94-.36,23.43-9,42.56-.23-2.58-11.51-4.48-27.74,21.9-35.38a33.81,33.81,0,0,1,8.27-1.36h0c16.58-.63,28.67,11.54,33.47,17.34a36.4,36.4,0,0,1,2.28,3l2-1.45h0c14.91-11.21,36.9-29.93,63.46-24.23,19.82,4.23,23.3,18.74,15.87,32.85a45.07,45.07,0,0,1-4.51,6.88,57.55,57.55,0,0,1-9.3,9.21c11.13-2.21,29.47,1.31,22.78,13.65q.36-.33.75-.63c7.06-5.91,17.82-11.27,34-7,14.52,3.85,11.14,17.62,11.14,17.62,18.32-19.11,44.17-36.9,68.15-30.6,18,4.73,13.62,18.36,1.59,33.78a182.64,182.64,0,0,1-12.18,13.86c.72-.21,14.11-4,24.4-2.85a20.31,20.31,0,0,1,6.4,1.65c10.11,4.83-1.37,12.52-7.69,18.45-3.36,3.15-5.57,6.22-5.62,8.55,0,2.07,1.59,3.55,5.62,4,2.44.26,6.53-.32,11.38-1.18h0c8.7-1.57,19.86-4.06,28.52-4.28-4.5-6.3-3-13.15,9.68-18.39a50.5,50.5,0,0,1,14.26-3.63c20.18-2.07,37.51,8.81,43.44,19.65,5.82-5.57,20.6-8.72,31.76-6.05.89-5.69,10.82-9.36,20.71-9.11,0,0,0,0,0,0a34.31,34.31,0,0,1,5.4.55q-.83-.66-1.65-1.38c-9.17-7.89-16.5-19.07-5.1-27.35,9.52-6.94,29.78-5.35,40.13,0,12.21,6.26,14.5,16.19,16.13,24.79,5.8-5.54,16.81-9.85,29.06-9.18-8.08-6.7-9.24-15,.94-21.31,10.75-6.63,29.71-8.89,39.44-.4,3-7.48,13.69-13.84,28.47-14,31.2,0,38.08,21.45,31.59,34.15,23.06-8.69,33.18,8,32.88,17.74,4.64-3,11.81-7.7,20-6.59-3.1-10.4-.92-20.73,18.45-25.32-1.25-6.11.73-12.38,6.75-17.88,5.6-5.11,15.78-8.94,27.1-7.88a30.61,30.61,0,0,1,9.43,2.36c7.1,3.07,11.46,8.42,12.91,13a38.44,38.44,0,0,1,15.18-5.68c-9.25-6.1-1-13.72,9.68-18a50.64,50.64,0,0,1,9-2.73c-23.38-5.56-43.82-23-18-33.67s50.42,2.67,57.7,16c2.34-2.25,6.14-4.1,10.57-5.33a44.19,44.19,0,0,1,21.22-.72c1.05-6.75,14.78-10.65,26.12-8.57-9.88-7.93-18.84-19.95-6.78-28.73,9.52-6.94,29.78-5.35,40.14,0,12.2,6.27,14.49,16.19,16.13,24.8,5.79-5.55,16.83-9.85,29.08-9.18-8.11-6.71-9.24-15,.94-21.32,10.74-6.63,29.69-8.89,39.43-.41,2.47-6.18,10.21-11.6,21.19-13.36h0a49.5,49.5,0,0,1,7.28-.61c29.88,0,37.48,19.71,32.32,32.53h0c-.23.55-.47,1.09-.75,1.62.69-.26,1.36-.5,2-.71h0c21.64-7,31.15,9,30.87,18.46,4.62-3,11.8-7.71,20-6.59-3.27-10.95-.7-21.82,21.62-26,22.68-4.26,33.21,7.61,28.13,18.16,16.78-9.27,44.29-9.45,49.86,5.16,3.17,8.36-.74,17.4-8.26,25.33h0a71.54,71.54,0,0,1-17.55,13.14c17.84-.88,36,2.5,50,8.44-.89-3.44-2-7.77,2.81-10.49,5.43-3.11,15.33-3,22.29-2,11,1.56,16.56,5.77,20.08,11.11,1.22-.18,2.44-.33,3.61-.41a56.73,56.73,0,0,1,34.3-11.13c10.39,0,19.86,2.16,25.16,6.43a36.84,36.84,0,0,1,5.27-.77c7.73-.63,13.69,1,18.44,3.68,7.35,4.23,11.78,11.25,15.35,17.07,15-12.27,30.39-5.66,37.87,1.72,2.05-4.8,8.64-17.44,22.24-21.85,11.58-3.76,28.08-5.39,42.39-5.42h0c2.5,0,4.93,0,7.26.13a24.29,24.29,0,0,1-3.41-1.83,24.62,24.62,0,0,1-8.72-9.15h0c-2.4-4.66-2.2-9.49,2.37-12.34,8.85-5.53,25-3.19,42,5-3.18-9.7,2.27-27.38,30.15-26.52s27,25.15,20,35.59c.93-.36,23.43-9,42.53-.23-2.57-11.5-4.45-27.75,21.93-35.39s44,19,44,19c7.94-5.83,18.12-14.43,30.1-20.29,10.49-5.14,22.37-8.16,35.32-5.39,27.74,5.92,23.46,32,2,49,11.14-2.23,29.46,1.29,22.79,13.63,7-6.12,18-12.06,34.77-7.61,14.5,3.85,11.12,17.62,11.12,17.62,18.33-19.1,44.19-36.91,68.17-30.6,23.31,6.13,9.07,27.16-10.59,47.64.89-.25,20.9-5.89,30.79-1.18,10.1,4.81-1.37,12.51-7.71,18.45a28.4,28.4,0,0,0-4.12,4.68c-2.35,3.57-2.18,6.51,2.4,7.55a15,15,0,0,0,1.72.29c8.57.93,37.17-8.54,48.66-4.46,10.49,3.73,13.36,10.1,13.15,17.69a17.86,17.86,0,0,1,3.31-1,21.56,21.56,0,0,1,3-.38,75.09,75.09,0,0,1,7.66-3.65,3.08,3.08,0,0,1,.09-1c.65-2.7,4.71-5.07,9.66-5.62a31,31,0,0,1,7.82.25l.83-.93a23.78,23.78,0,0,1-5.58-2c-2.7-1.53-4.06-4-2-5.82,2.87-2.53,9.58-2.16,15-1.36"/>
          <path class="cls-10" d="M3680.53-151.31c-1354.44,31.1-9549.2,6.85-15593.32,0V4c8.91,9,17.29,18.8,20.46,28.3,7.48,22.42,13.62,41.67,7.89,63.74-5.82,22.4-12.69,44.54-22.2,66.63-2.05,4.76-4.14,9.52-6.15,14.28v76.18H3680.53Z"/>
          <g class="cls-11">
            <g class="cls-12">
              <g class="cls-13">
                <g class="cls-12">
                  <path class="cls-14" d="M3673.61,61.38h5.61L3683,212.6h43.5v43.32H-4741.8V94.21l6.49-.07q23.6-.24,47.13-.53,81.8-1,163.21-2.28h0c4.79-.08,9.57-.15,14.35-.24h0q60.16-1,120.16-2c201.13-3.54,400.68-6.51,603.58-8.31l32.42-.3,6.61-.06,15.56-.14,14.65-.13q114.6-1.06,228.78-2.5,65.82-.91,131.18-2.11c50.5-.94,101-2.56,151.92-3.07,56-.57,100.32-1.46,129-7.29,1.69-.35.69-.71-2.16-.92-109.81-8-261.14-7.82-387.83-8.22q-57.33-.23-114.46-.64c-66-.44-131.87-.88-198-.83-118.58.08-237,.56-355.51,0-106.35-.55-226.25-1.45-320.19-7.46-17.53-1.13-33.22-2.56-46.69-4.24-11.4-1.42-10.34-1.44,2-2.67,14.22-1.4,30.64-2.5,47.34-3.48,62-3.71,135.15-5.11,204.14-6.28,64.19-1.06,129.18-1.63,193-2.9,98.89-2,196.71-5,294.54-7.47,111.55-2.84,223.78-5.76,337.27-7.49h0q13.56-.23,27.13-.4h.23q15.63-.21,31.32-.38,16.47-.19,33-.34h1.67l15.93-.11c4.92-.05,9.81-.08,14.73-.1,6.1,0,12.23-.07,18.35-.11h1.8q11.43-.06,22.86-.07h0q10.53,0,21.09,0h3c157.47,0,314.86,1.95,472.4.94,30.7-.21,61.57-.53,92.11-1.08h0q23.57-.42,46.77-1c1.43-.05,2.89-.08,4.32-.12h0l11.26-.32q13.08-.39,26-.86c4.12-.14,8.2-.29,12.27-.45h.05l3.58-.15q23.54-.93,46.1-2.17c4.32-.27,3.68-.93,0-1.17-127.18-8.79-288.2-9.71-434.12-10.48-90.13-.45-178.45-1.22-267.42-2.92q-113.88-2.16-225.46-5.54l-16.31-.47-.66,0h0l-5.93-.16-26.54-.79-5.37-.16h-.19l-3.27-.1-13.17-.4h-.1l-.48,0h0q-.42,0-.81,0-21.21-.63-42.38-1.29-38.71-1.2-77.38-2.43l-2.18-.07h0l-1.73-.06h0q-140.88-4.5-281.59-9.18h0l-17.27-.56a.34.34,0,0,0-.1,0l-3.39-.11-48.85-1.58-25.76-.81h0l-12.44-.4-18.17-.57-9.93-.31-13.55-.42c-3.89-.11-7.77-.24-11.66-.36h0l-20.54-.63-5.24-.16-33.38-1h0q-45.6-1.36-91.37-2.64h0q-26.69-.75-53.43-1.46h0q-29.88-.8-59.82-1.55l-3.94-.09-1.19,0q-31.2-.78-62.52-1.5-101.82-2.34-205-4-34-.51-68-.93-23.53-.28-47.13-.49l-6.49-.07v-9l6.49,0q23.49.09,47.13.3c182.57,1.56,369.67,7.54,549.74,11.15q59.38,1.19,118.08,3h0l15.23.47q53.53,1.68,106.81,3.63h0l14.86.53,8.91.34h.07q5.94.21,11.87.44c12.23.44,24.5.89,36.74,1.35h.06l6.46.23h0l20,.74,4.44.16h.07l.33,0,8.76.32c5,.18,10,.37,15.07.54h0l19,.69,1.25,0,5.53.2,19.47.68h0l17.61.61q38.74,1.32,77.73,2.49l30.38.88c.95,0,1.88.05,2.85.07h0l16.59.44h0c11.32.29,22.63.57,34,.82q11.19.27,22.39.49l3.65.07,16.23.32h.06l3.08.07c242.22,4.79,479.2,8.19,723.1,10.56h0l15.3.15h1.18l4.16.05q6.78,0,13.53.13l5.8.06,11.15.13,9.08.11c5.16,0,10.31.12,15.47.18l9.36.12,23.1.31h0q20.51.29,41,.61h0c10.55.15,21.14.33,31.7.51h0q54.26.9,108.36,2h.52q18.78.38,37.56.78h.09l9.62.2h.79l8.84.18,15.44.34,14.88.32c2.7.07,5.4.12,8.1.18h.55l11.54.26,15.21.34h0L-2346-9l1.91,0h0l8.16.2q12,.25,24.09.55l5.5.13h0c113.09,2.63,226.11,5.4,339.43,7.71q130.62,2.67,261.95,4.21c345.68,3.68,692.14.29,1038,4q110.38,1.2,219.63,2h0l27.49.2q-12.22,0-24.45,0h0c-38.69.06-77.36.21-116.23.52-98.24.81-196.14,2.27-294,3.49-96.15,1.22-193.6,2.45-290.58,2-85.76-.41-172.22-1.6-257.61,0-12.66.23-25.16.65-37.29,1.05-5.57.19-5.72.9-1.54,1.26,107.61,8.74,251.12,10.68,381.07,11.71,147.87,1.17,297.07.87,445.15,1.38q107.36.36,214.64.51,194.42.27,388.78,0c203.09-.28,406-1.35,609.06-1.77q102.54-.21,204.5.6c320.52,2.37,638,10.35,960,9.23,115.77-.4,231.68-1.55,347.34-2.85q101.55-1.12,202.79-2.26c145.33-1.56,312.52-4.95,452.68,1.28-56.79,9.54-184.51,9.54-251,18.19-2.58.32-2.25.68.26,1,.26,0,.57.07.9.09,59.65,5,146,5,217.34,4.43,60.33-.47,120.27-1.63,179.29-3.21l18-.5q13.86-.39,27.64-.81l6.07-.19,13.83-.42,13.13-.43,6.19-.2h0q26.51-.89,52.6-1.83c107.89-3.92,213.35-8.89,312.75-15,44.9-2.73,91.33-5.75,132.82-9.34,27.55-2.39,53-5,74.3-8l1.43-.21c-442,4.73-1288.71,15.53,0-14.63.22,0-.41,0-.62,0-5.72-.47-11.8-.88-18.17-1.25h0c-17.25-1-36.58-1.69-56.93-2.17s-41.75-.73-63-.87l-6.14,0h-3.07c-22.84-.11-45.42-.1-66.35-.07l-23.28,0C3234.41.86,3136.56,2,3038.85,3q-49,.49-98,.92h0l-14,.12h-.07l-21.3.19h0l-76.19.66-3.7,0h-.71q-44.13.38-88.26.79l-2.87,0h-.54q-36,.33-72,.7C2525.8,7.8,2388.45,9,2252.33,8.2h-.16Q2205,7.92,2158,7.29l-.76,0-9.07-.12H2148L2137.79,7h-.71q-9.33-.14-18.64-.3l-1.26,0,1.29-.06c3-.15,5.91-.31,8.88-.45h0L2141,5.46h0l17.33-.83,2.23-.1c75.59-3.51,153.65-6.13,233-8.31h0q48.15-1.32,96.9-2.46h0q18.74-.45,37.55-.87h0c.59,0,1.2,0,1.79,0h0l21.21-.47,32.76-.72h.66l18.79-.41,16.9-.36,21.49-.46h.62l3-.07q16.32-.33,32.63-.7h0l13.12-.27h0C2816.34-13.34,2941-16.27,3060.71-21c65.73-2.61,128.79-5.69,189.71-9.2,77.48-4.46,151.52-9.61,223.27-15.32q10.39-.81,20.7-1.65c25-2,28.77.18,53.29-1.88.5,0,21.73-1.39,22.23-1.41,29.64-1.32,25.31,2.65,55.12,1.41,8.06-.34,40.51,2.93,48.59,2.59V61.38Z"/>
                </g>
              </g>
            </g>
          </g>
          <g>
            <g class="cls-15">
              <g class="cls-16">
                <g class="cls-17">
                  <path class="cls-18" d="M263.85,239.27l4.21,0,110.31-.54,65.45-.32c7.86,0,15.73-.16,23.59-.11,5,0,21.44,3.59,17.51-6.17-1.39-3.43-4.88-5.16-8.09-6.57a608.59,608.59,0,0,0-199.54-49.73c22.39-7.52,45.29-15.32,63.38-31.78a16.83,16.83,0,0,0,5.33-9.95c1.47-10.07-6.94-15-14.28-18.29A516.57,516.57,0,0,0,149.79,71.14a106.06,106.06,0,0,0,39.16-21,9.71,9.71,0,0,0,3.47-7.51c-.1-5.27-4.32-6.91-8.06-8a196.52,196.52,0,0,0-55.23-8c6.17-9,24.48-8.46,22.79-19.24a9.45,9.45,0,0,0-6.58-7.59C77.15-20.3,6.51-28.13-63.73-36.22a6.16,6.16,0,0,1-5.34-5.5c-.36-3.46,2.33-5.08,4.73-6.33l34.59-18.13a8.34,8.34,0,0,0,4.36-6.08c.87-5.76-4.6-8.28-9.12-9.59q-27-7.87-54.63-13.39L-72-106.69a674.54,674.54,0,0,0-115-9.59c-29,.08-41.62,1.76-68.86-9.25-23.09-9.34-13.62-10.47-38.22-9.8-66.34,1.81-182.95,3.92-249.29,5.74-6.37.17-10.12,3-15.11,7.33s-2.42,7.78,3.08,11.26c-56.61,4.65-124,17-179.91,15.67C-775.73-96.27-816.85-76.24-880-57c-18.87,5.77,32,21.11,35.59,26.15-79.91,1-124.65-10.94-203.52,2.95C-1055-26.61-1115-8.54-1126.56-4.63c-25.68,15.49,22.72,23.33,29.94,23.15-31.53,4.95-144.24,22-115.69,28.82,50.34,12-71,4.27-122.48,29.69a16.92,16.92,0,0,0-7.67,9.38c-3,11.25,8.64,17.75,18.09,20.69,43.95,13.69,121.58,44.12,166.91,50.71a.41.41,0,0,1,0,.8c-90.36-15.91-232.75,34.18-232.75,34.18l-9.31-1.66v48.14Z"/>
                </g>
              </g>
              <g class="cls-19">
                <g class="cls-20">
                  <path class="cls-18" d="M186.89,252l3.82,0,100.21-.54,59.45-.31c7.14,0,14.29-.17,21.43-.12,4.52,0,19.48,3.6,15.9-6.17-1.26-3.43-4.43-5.16-7.34-6.57A512.49,512.49,0,0,0,199.1,188.49c20.34-7.52,41.14-15.32,57.57-31.77a17.43,17.43,0,0,0,4.84-10c1.34-10.07-6.3-15-13-18.29C196.12,102.56,140,87.38,83.28,83.82a93.82,93.82,0,0,0,35.57-21A10.1,10.1,0,0,0,122,55.28c-.08-5.27-3.92-6.91-7.32-8a163.38,163.38,0,0,0-50.17-8c5.61-9,22.24-8.46,20.71-19.24a9.23,9.23,0,0,0-6-7.59C17.3-7.62-46.87-15.44-110.67-23.54a5.9,5.9,0,0,1-4.85-5.5c-.33-3.46,2.11-5.08,4.29-6.33L-79.81-53.5a8.34,8.34,0,0,0,4-6.08c.79-5.76-4.18-8.28-8.28-9.59Q-108.71-77-133.76-82.56L-118.18-94a557.33,557.33,0,0,0-104.5-9.58c-26.31.07-37.8,1.76-62.55-9.26-21-9.34-12.37-10.47-34.71-9.8-60.27,1.82-166.19,3.92-226.46,5.74-5.78.17-9.19,3-13.73,7.33s-2.19,7.78,2.81,11.27c-51.43,4.64-112.63,17-163.43,15.66-36.7-.94-74,19.09-131.37,38.37-17.14,5.76,29.07,21.1,32.32,26.14-72.58,1-113.22-10.94-184.87,3-6.48,1.26-60.93,19.33-71.45,23.24-23.33,15.49,20.63,23.33,27.19,23.15-28.64,5-131,22-105.09,28.82,45.73,12-64.48,4.27-111.26,29.69a16.64,16.64,0,0,0-7,9.38c-2.75,11.25,7.84,17.75,16.42,20.69,39.93,13.69,110.45,44.12,151.62,50.71a.42.42,0,0,1,0,.8c-82.08-15.91-211.42,34.18-211.42,34.18l-8.46-1.66V252Z"/>
                </g>
              </g>
            </g>
            <g class="cls-21">
              <rect class="cls-22" x="-1301.58" y="-116.71" width="1691.4" height="373.94"/>
            </g>
          </g>
          <g class="cls-23">
            <g class="cls-16">
              <g class="cls-24">
                <path class="cls-18" d="M349.44,243.5l-3.75,0L247.4,243l-58.31-.32c-7,0-14-.16-21-.12-4.44,0-19.1,3.6-15.6-6.16,1.24-3.43,4.35-5.17,7.21-6.57,56.59-27.85,116.85-44.71,177.79-49.74-20-7.52-40.36-15.31-56.47-31.77a17.48,17.48,0,0,1-4.75-10c-1.31-10.07,6.18-15,12.72-18.28,51.42-25.92,106.5-41.1,162.1-44.66a91.68,91.68,0,0,1-34.89-21,10.23,10.23,0,0,1-3.09-7.51c.08-5.27,3.84-6.92,7.17-8a157.21,157.21,0,0,1,49.22-8c-5.5-9-21.82-8.47-20.31-19.24A9.16,9.16,0,0,1,455,4c60.75-20.09,123.7-27.91,186.28-36a5.88,5.88,0,0,0,4.76-5.5c.32-3.46-2.08-5.08-4.22-6.34L611-61.94A8.34,8.34,0,0,1,607.15-68c-.77-5.76,4.1-8.28,8.12-9.59Q639.38-85.48,664-91l-15.27-11.46A537.15,537.15,0,0,1,751.17-112c25.81.08,37.08,1.76,61.35-9.26,20.58-9.33,12.14-10.47,34.05-9.8,59.11,1.82,163,3.93,222.12,5.74,5.68.18,9,3,13.47,7.34s2.15,7.78-2.75,11.26c50.44,4.65,110.47,17,160.3,15.66,36-.94,72.63,19.09,128.85,38.37,16.82,5.77-28.51,21.1-31.7,26.15,71.19,1,111.05-10.94,181.33,2.94,6.35,1.26,59.76,19.33,70.09,23.24,22.88,15.5-20.24,23.33-26.68,23.16,28.1,4.95,128.52,22,103.08,28.82-44.85,12,63.25,4.26,109.13,29.69,2.82,1.56,6,5.76,6.83,9.38,2.7,11.24-7.69,17.74-16.11,20.69-39.16,13.68-108.33,44.11-148.72,50.71-.38.06-.38.74,0,.79,80.5-15.91,207.37,34.18,207.37,34.18l8.29-1.66V243.5Z"/>
              </g>
            </g>
          </g>
        </g>
      </g>
      <g>
        <g>
          <path class="cls-25" d="M32.56,56.3l2.81,1.23L108,89.38l58.5-15.6L83.57,44.67h0Zm11.43,1L83.33,48.4l71,24.87-46,12.26Z"/>
          <polygon class="cls-26" points="43.99 57.32 58.02 63.47 59.33 64.05 71.84 69.53 73.15 70.11 81.8 73.9 82.17 67.7 82.23 66.76 82.77 57.78 82.83 56.84 83.33 48.4 43.99 57.32"/>
          <polygon class="cls-27" points="81.8 73.9 108.32 85.53 120.67 82.24 122.15 81.85 136.37 78.05 137.86 77.66 154.31 73.27 83.33 48.4 82.81 56.99 82.77 57.79 82.23 66.75 82.17 67.69 81.8 73.9"/>
          <polygon class="cls-28" points="58.02 63.47 59.33 64.05 82.75 57.78 82.77 57.78 82.81 56.99 82.83 56.84 58.02 63.47"/>
          <g>
            <polygon class="cls-29" points="82.23 66.76 82.17 67.69 120.67 82.24 122.16 81.84 82.23 66.75 80.75 67.15 82.23 66.76"/>
            <polygon class="cls-28" points="80.75 67.15 82.23 66.75 82.23 66.76 82.17 67.69 82.17 67.7 73.15 70.11 71.84 69.53 80.75 67.15"/>
            <polygon class="cls-29" points="82.75 57.78 82.77 57.79 136.37 78.05 137.86 77.65 82.83 56.84 82.81 56.99 82.77 57.78 82.75 57.78"/>
          </g>
        </g>
        <path class="cls-30" d="M36.82,54l.63.26,70.25,29a.76.76,0,0,1,0-.15c.48-20.27,13.42-36.51,29.31-36.51A24.54,24.54,0,0,1,142,47L66.26,23a20.22,20.22,0,0,0-3.49-.3C50.07,22.68,38.47,37.68,36.82,54Z"/>
        <path class="cls-30" d="M36.82,54l.63.26,66.43,27.27c.59-20.16,13.48-36.27,29.31-36.27a24,24,0,0,1,4.49.43l-68.58-22A21.37,21.37,0,0,0,66.26,23a20.22,20.22,0,0,0-3.49-.3C50.07,22.68,38.47,37.68,36.82,54Z"/>
        <g>
          <path class="cls-30" d="M107.71,83.05c.48-20.27,13.42-36.51,29.31-36.51A24.54,24.54,0,0,1,142,47h0l.35.07c11.19,2.48,20.74,12.65,24.05,26.17l.12.5L108,89.38l0,.44c0-.15,0-.3,0-.45s0-.34,0-.51c-.15-1.52-.23-3.07-.23-4.64C107.69,83.83,107.7,83.44,107.71,83.05Z"/>
          <path class="cls-26" d="M111.46,84.22c0,.18,0,.35,0,.53L161.9,71.3a36.18,36.18,0,0,0-3-6.67c-.15-.27-.31-.55-.47-.81a32.17,32.17,0,0,0-6-7.36c-.28-.25-.56-.49-.85-.72A22.93,22.93,0,0,0,137,50.11c-8.36,0-15.79,5.39-20.46,13.69L116,64.86a39.84,39.84,0,0,0-3.45,9.54c-.07.32-.14.64-.2,1h0c-.07.32-.13.64-.19,1A45.15,45.15,0,0,0,111.46,84.22Z"/>
          <path class="cls-27" d="M36.77,53.93l67.11,27.69v-.14c0-.27,0-.53,0-.8a47.14,47.14,0,0,1,.88-7.24c.06-.3.12-.6.19-.9a42.78,42.78,0,0,1,4-10.86l.43-.8a36.1,36.1,0,0,1,5.18-7.1c.23-.24.46-.48.7-.7a27.18,27.18,0,0,1,10.35-6.59c.46-.16.92-.31,1.39-.44.83-.22,1.67-.41,2.53-.55.48-.07,1-.13,1.45-.18s1-.08,1.46-.09l.74,0a24,24,0,0,1,4.49.43l.43.08h0l.35.08L66.34,22.69h0a20.1,20.1,0,0,0-3.48-.3,16.6,16.6,0,0,0-2.44.19,17,17,0,0,0-1.69.36,22.24,22.24,0,0,0-8.66,4.73c-.26.23-.52.45-.78.69A34.86,34.86,0,0,0,44.34,34l-.52.76a43.44,43.44,0,0,0-5.09,10.39c-.1.29-.19.58-.28.87A42.74,42.74,0,0,0,36.77,53.93Z"/>
          <path class="cls-31" d="M107.75,86.56c0,.38,0,.77.07,1.15s.06.77.1,1.15h0a.34.34,0,0,0,0,.1c0,.14,0,.28,0,.41L32.56,56.3c0-.18,0-.36,0-.54,0-1.08.07-2.15.18-3.22h0a.68.68,0,0,0,0-.14.49.49,0,0,0,0-.12h0C34.53,36.23,46,21.35,58.63,21.35h.15a24,24,0,0,1,3.06.2l.57.09s0,0,0,0a16.76,16.76,0,0,1,2.1.47l.43.13.13,0,.89.28.35.11a20.1,20.1,0,0,0-3.48-.3c-12.59,0-24.27,15.42-26.08,31.54l67.11,27.69v-.14c0-.27,0-.53,0-.8.87-18.15,11.74-32.94,25.62-35.18.48-.07,1-.13,1.45-.18s1-.08,1.46-.09l.74,0a24,24,0,0,1,4.49.43l4.64,1.48-.35-.07h0a24.54,24.54,0,0,0-4.93-.5c-15.89,0-28.83,16.39-29.32,36.66,0,.34,0,.68,0,1s0,.87,0,1.3S107.73,86.21,107.75,86.56Z"/>
          <g>
            <path class="cls-28" d="M112.15,76.33,159,64.63c-.15-.27-.31-.55-.47-.81L112.34,75.37C112.27,75.69,112.21,76,112.15,76.33Z"/>
            <path class="cls-28" d="M116,64.86l36.46-8.4c-.28-.25-.56-.49-.85-.72l-35,8.06Z"/>
          </g>
          <path class="cls-29" d="M38.45,46,104.8,73.44c.06-.3.12-.6.19-.9L38.73,45.16C38.63,45.45,38.54,45.74,38.45,46Z"/>
          <path class="cls-29" d="M43.82,34.77,109,61.68l.43-.8L44.34,34Z"/>
          <path class="cls-29" d="M49.28,28.36l65.29,25.42c.23-.24.46-.48.7-.7L50.06,27.67C49.8,27.9,49.54,28.12,49.28,28.36Z"/>
          <path class="cls-29" d="M58.72,22.94l66.9,23.55c.46-.16.92-.31,1.39-.44L60.41,22.58A17,17,0,0,0,58.72,22.94Z"/>
        </g>
        <path class="cls-32" d="M32.57,55.76l75.35,33.1,58.45-15.57.12.5h0v0l-.06.37L108,89.84,32.59,56.76l0-.46C32.56,56.12,32.56,55.94,32.57,55.76Z"/>
        <g>
          <path class="cls-30" d="M108,89.38l0,.44h0l2.43,47.52,49-15.33,2.41-16.47,4.59-31.35.06-.37v0h0ZM112.07,92,162,78.7l-4.89,33.44L156,119.37,113.7,132.49l-1.1-27.4Z"/>
          <polygon class="cls-26" points="112.08 92.01 112.47 101.75 112.5 102.67 112.85 111.41 112.89 112.33 113.26 121.58 113.3 122.49 113.7 132.49 156.02 119.37 157.28 110.73 157.42 109.76 158.85 100.03 158.99 99.07 160.34 89.88 160.48 88.91 161.97 78.7 112.08 92.01"/>
          <polygon class="cls-27" points="36.99 62.18 37.74 73.07 37.81 74.07 38.4 82.49 38.47 83.49 39.11 92.66 39.18 93.66 39.18 93.71 39.25 94.71 39.72 101.47 106.01 131.47 105.64 121.91 105.6 120.93 105.23 111.37 105.19 110.38 104.86 101.75 104.82 100.76 104.47 91.77 36.99 62.18"/>
          <g>
            <polygon class="cls-28" points="112.85 111.41 112.89 112.33 158.85 100.03 158.99 99.07 112.85 111.41"/>
            <polygon class="cls-28" points="112.47 101.75 112.5 102.67 160.34 89.88 160.48 88.91 112.47 101.75"/>
            <polygon class="cls-28" points="113.26 121.58 113.3 122.49 157.28 110.73 157.42 109.76 113.26 121.58"/>
          </g>
          <polygon class="cls-29" points="38.4 82.49 38.47 83.49 105.23 111.37 105.19 110.38 38.4 82.49"/>
          <polygon class="cls-29" points="37.74 73.07 37.81 74.07 104.86 101.75 104.82 100.76 37.74 73.07"/>
          <polygon class="cls-29" points="39.11 92.66 39.18 93.66 105.64 121.91 105.6 120.93 39.11 92.66"/>
          <path class="cls-31" d="M32.56,56.3l0,.46,3.6,47.09,74.26,33.5L108,89.82h0a0,0,0,0,0,0,0v-.41h0ZM37,62.18,61.59,73l.4,4.88a10.45,10.45,0,0,0,6.55,8.73h0C72,88,75.86,85.52,75.72,81.94l-.11-2.82,28.86,12.65,1.54,39.7-66.29-30Z"/>
          <path class="cls-33" d="M67.17,83.63,68,80.05a1.88,1.88,0,0,1-.45-1.27c0-.87.51-1.58,1.13-1.58s1.14.71,1.14,1.58a1.73,1.73,0,0,1-.61,1.4l.41,4.44Z"/>
        </g>
      </g>
    </g>
  </g>
</svg>
