<svg id="Layer_1" data-name="Layer 1" xmlns="http://www.w3.org/2000/svg" width="169.41" height="206.32" viewBox="0 0 169.41 206.32">
  <defs>
    <style>
      .cls-1, .cls-8 {
        fill: #fbd3c7;
      }

      .cls-1 {
        stroke: #453323;
      }

      .cls-1, .cls-11, .cls-12, .cls-14, .cls-15, .cls-2, .cls-3, .cls-4 {
        stroke-miterlimit: 10;
      }

      .cls-1, .cls-12, .cls-14, .cls-2, .cls-3 {
        stroke-width: 0.5px;
      }

      .cls-2 {
        fill: #d81f25;
        stroke: #5b0c12;
      }

      .cls-3 {
        fill: #fecb4b;
        stroke: #664f1c;
      }

      .cls-4 {
        fill: #f7edeb;
        stroke: #bf9b82;
      }

      .cls-5 {
        fill: #2d2b21;
      }

      .cls-6 {
        fill: #fff;
      }

      .cls-7 {
        fill: #3d2e17;
      }

      .cls-9 {
        fill: #453323;
      }

      .cls-10 {
        fill: #ef8d7d;
      }

      .cls-11 {
        fill: #1044a0;
        stroke: #143d84;
        opacity: 0.25;
      }

      .cls-12 {
        fill: none;
        stroke: #700418;
      }

      .cls-13 {
        fill: #4c2c17;
      }

      .cls-14 {
        fill: #6bcdf2;
        stroke: #245666;
      }

      .cls-15 {
        fill: #1d4481;
        stroke: #1a234e;
      }

      .cls-16 {
        fill: #273472;
      }

      .cls-17 {
        fill: #fecc51;
      }
    </style>
  </defs>
  <g>
    <g>
      <path class="cls-1" d="M56.72,92.69a15.17,15.17,0,0,0-2.29,7.21c0,3.72-3.78,5.43-4.64,2.43s.43-5.21-1.86-4.92-2.92,4.28-2.49,7.35.14,4.21-1.86,3.93-3-1.22-3.93-4.57c0,0-3,.71-3.28-3.5,0,0-3.07.28-2.22-4.36,0,0-1.28-1.14,1.36-5.78s17.35-9.43,17.35-9.43Z"/>
      <path class="cls-1" d="M39.87,105.26a11,11,0,0,1,.78-7.36"/>
      <path class="cls-1" d="M36.37,101.4a10.47,10.47,0,0,1,1.57-6.71"/>
      <path class="cls-1" d="M34.08,97.19s-.14-4.07,2.43-5.78"/>
    </g>
    <g>
      <path class="cls-2" d="M102.81,93.88s-.58-.19-1.66-.47a100.5,100.5,0,0,0-27.09-2.86c-7.08.21-11.43.89-14.08,1.63-3.62,1-4.1,2.08-4.1,2.08l-3.42-13.8s1.71-.32,4.47-.8c8-1.37,25-4,34.94-3.67a39,39,0,0,1,8.31,1c5.59,1.47,6.4,4.4,7.3,8.51C108.72,91.12,102.81,93.88,102.81,93.88Z"/>
      <path class="cls-3" d="M60,92.18c-3.62,1-4.1,2.08-4.1,2.08l-3.42-13.8s1.71-.32,4.47-.8A31.89,31.89,0,0,1,60,92.18Z"/>
      <path class="cls-3" d="M102.81,93.88s-.58-.19-1.66-.47A16,16,0,0,0,103,87.7c.87-5.58-1.26-9-2.83-10.71,5.59,1.47,6.4,4.4,7.3,8.51C108.72,91.12,102.81,93.88,102.81,93.88Z"/>
    </g>
  </g>
  <g>
    <path class="cls-1" d="M123.76,87.05s-6.93.76-9.37,6.49-11.69-8.89-11.69-8.89L105,67.78l11.64-.7Z"/>
    <g>
      <path class="cls-4" d="M135.4,72.06a14,14,0,0,0,8.5,3.42s.88.14.73-2.27S134.12,68.94,135.4,72.06Z"/>
      <path class="cls-1" d="M150.14,66.13c-1.77,1-3.23-.07-3.36,3.51-.05,1.27-.13,2.16-.2,2.77a4.55,4.55,0,0,1-.26,1.35,14.94,14.94,0,0,1-10.94-2.3l.22.29.57.68c1.32,1.53,4.24,4.4,7.94,5.13,0,0,1.33.4.85,1.25a3.13,3.13,0,0,1-1.24,1c-2.78,1.55-1.44,5-3.87,8.16s-9.63,3.53-15.69,1.37-14.45-7-18.47-16.07,0-31.63,0-31.63l6.7-7.46,7.85-2.83,20.23.82s8.11,8.13,6.87,15.17-2.8,10,.82,13.64S151.91,65.15,150.14,66.13Z"/>
      <path class="cls-5" d="M92.4,23.12s1.2-10.53,16-12.8,23.24,2.36,23.24,2.36l-8.16,2S138,16.56,147.83,26s-.45,21-.45,21a17.53,17.53,0,0,0-2.07-7.66,18.58,18.58,0,0,0-6-6.09s6.95,8.3-1.2,7.57a34.08,34.08,0,0,1-13.85-4.32s4.68,11.23-5.42,18.8l-2.59-8.38A32.4,32.4,0,0,1,106.15,65l1.1,8.21-.4,10.83s-8.08.4-19.54-16.35-10.13-32.43,3-37.83c0,0-4-3.68-11,1.7C79.31,31.57,80.54,23,92.4,23.12Z"/>
      <g>
        <g>
          <ellipse class="cls-6" cx="139.69" cy="58.95" rx="5.53" ry="3.24" transform="translate(52.77 183.18) rotate(-77.9)"/>
          <path class="cls-7" d="M142.9,59.64c-.41,2.82-3.4,7.37-6.28,4.08a7.57,7.57,0,0,1,2.23-10.37c4-1.82,4.83,3.55,4.05,6.29Zm-.1,0c.39-2,.38-5.23-2-6-4.19-.46-6.29,9.36-2.29,10.66,2.47.26,3.78-2.64,4.26-4.66Z"/>
        </g>
        <ellipse class="cls-5" cx="141.12" cy="59.55" rx="3.62" ry="1.74" transform="translate(53.31 185.05) rotate(-77.9)"/>
        <ellipse class="cls-6" cx="141.78" cy="57.03" rx="0.93" ry="0.59" transform="matrix(0.21, -0.98, 0.98, 0.21, 56.3, 183.71)"/>
        <path class="cls-5" d="M143.84,48.2s-4-6-10.52,3.33a11.36,11.36,0,0,1,8.82-7S146.16,44.75,143.84,48.2Z"/>
      </g>
      <g>
        <path class="cls-1" d="M107.86,64.56s-2.12-4.93-5.75-5.85-6.63,5.71-3,11.86,7.72,8.08,10.85.66"/>
        <path class="cls-1" d="M106.36,67.17s-3.94-7.61-7-3"/>
        <g>
          <path class="cls-8" d="M104.39,64.76A4.18,4.18,0,0,0,103,70"/>
          <path class="cls-9" d="M104.4,64.78A6.73,6.73,0,0,0,103,70a3.94,3.94,0,0,1-.32-2.88,3.86,3.86,0,0,1,1.74-2.32Z"/>
        </g>
      </g>
      <g>
        <path class="cls-8" d="M135.86,69.62a2.89,2.89,0,0,1-3,2.66"/>
        <path class="cls-9" d="M135.88,69.62c.59,1.69-1.42,3.3-3,2.68v0a3.62,3.62,0,0,0,2-.76,3.23,3.23,0,0,0,1-1.87Z"/>
      </g>
      <path class="cls-10" d="M146.58,72.41a4.55,4.55,0,0,1-.26,1.35,14.94,14.94,0,0,1-10.94-2.3l.22.29a4.78,4.78,0,0,1-.4-.46,20.37,20.37,0,0,0,9.4,1.4c2.59-.42,2-.29,2-.29Z"/>
      <path class="cls-10" d="M135.4,71.73s.08.17.24.44l-.22-.11Z"/>
      <path class="cls-10" d="M145,78.81a11,11,0,0,1-3.25-1,14.27,14.27,0,0,1-6.07-5.6l.53.26c1.32,1.53,4.24,4.4,7.94,5.13C144.11,77.56,145.44,78,145,78.81Z"/>
    </g>
    <g>
      <path class="cls-11" d="M108.21,60.3l6.4-.67s2.09-3.27,15.77-6.66,15.59.07,15.7,6.64A2.43,2.43,0,0,0,144,62.88c.75,3-10.54,5.64-28.79-.57l-7.55.6Z"/>
      <path class="cls-12" d="M108.21,60.3l6.4-.67s2.09-3.27,15.77-6.66,15.59.07,15.7,6.64A2.43,2.43,0,0,0,144,62.88c.75,3-10.54,5.64-28.79-.57l-7.55.6Z"/>
    </g>
  </g>
  <g>
    <path class="cls-2" d="M90,129.26s11,5.05,16.09,14.38L95.64,153.92,79.46,140.59Z"/>
    <path class="cls-2" d="M50.33,127.55s-3.62,13.71,23.13,25.7l-.86,17.52L97,145.54l-9.33-8.95L85,133.45S68.41,123.84,50.33,127.55Z"/>
    <g>
      <path class="cls-3" d="M110.09,185.54c0,.24,0,.49,0,.75,0,0-3.82,7.18-21.19.71,0,0-10.32.52-13.75-3.19a3.65,3.65,0,0,1-.52-2.19,15.09,15.09,0,0,1,1.61-6.14,38.35,38.35,0,0,0,1.2-4.56c.16-.77.3-1.6.42-2.47.21-1.54.08,1.64,0,0a75.85,75.85,0,0,1,22.28-23.1,20.07,20.07,0,0,1,7.9-3.81s.73.16.38,1.24l-1.34,4c-1.62,5-10.09,18.09-16.34,27.39,0,0,7.44-.26,11.34,1C105.8,176.33,110.05,180.34,110.09,185.54Z"/>
      <path class="cls-3" d="M90.71,174.17a12.17,12.17,0,0,0-6,3.55"/>
      <path class="cls-13" d="M108.48,142.11c-.22.77-.5,1.67-.84,2.74h0l-24,25.3c.15-.77.3-1.6.41-2.47Z"/>
      <path class="cls-13" d="M110.09,185.54c0,.24,0,.49,0,.75,0,0-3.82,7.18-21.19.71,0,0-10.32.52-13.75-3.19a3.65,3.65,0,0,1-.52-2.19c1.24,1,4.77,2.73,14.51,3.57C89.12,185.19,103,189.85,110.09,185.54Z"/>
    </g>
    <g>
      <path class="cls-3" d="M104.57,190.3q0,.36,0,.75s-3.81,7.18-21.18.71c0,0-10.33.52-13.76-3.19a3.61,3.61,0,0,1-.51-2.19,15.09,15.09,0,0,1,1.61-6.14,38.35,38.35,0,0,0,1.2-4.56c.16-.77.3-1.6.41-2.47a26.67,26.67,0,0,0,.25-4.85s9.92-14.84,24.91-24.91c0,0,.55-.16-.7,4.17h0c-.22.77-.5,1.67-.84,2.75h0c-1.63,5-4.76,13.66-10.73,28.55,0,0,7.44-.26,11.34,1C100.28,181.09,104.53,185.1,104.57,190.3Z"/>
      <path class="cls-3" d="M85.19,178.93a12.13,12.13,0,0,0-6,3.55"/>
      <path class="cls-13" d="M96.77,147.63c-.22.77-.5,1.67-.84,2.75h0l-24,25.3c.16-.77.3-1.6.41-2.47Z"/>
      <path class="cls-13" d="M104.57,190.3q0,.36,0,.75s-3.81,7.18-21.18.71c0,0-10.33.52-13.76-3.19a3.61,3.61,0,0,1-.51-2.19c1.23,1,4.77,2.73,14.5,3.57C83.59,190,97.5,194.61,104.57,190.3Z"/>
    </g>
  </g>
  <path class="cls-2" d="M94.4,80.24s12.38-.77,18.76,6.47,1.81,17.23-1.24,20.37-19.23,14.28-22.75,19-33.8-.47-33.8-.47S68,102.7,82.79,89.28,94.4,80.24,94.4,80.24Z"/>
  <g>
    <path class="cls-3" d="M51.47,137.35S64,130.6,86.31,134.88c0,0,1.33-3.62,6.28-4.57l-3.8-2.38-36.94-1.05S47.47,130.5,51.47,137.35Z"/>
    <g>
      <path class="cls-14" d="M90.59,124.41l-1,4.18A37.56,37.56,0,0,1,84.07,130c-1.18.22-2.39.4-3.62.53a74.5,74.5,0,0,1-9.66.37c-1.12,0-2.23-.07-3.31-.14-4-.23-7.58-.66-10.41-1.08-1.31-.2-2.45-.39-3.38-.55-1.71-.32-2.7-.54-2.7-.54-1.8-5.52,2.58-6.56,2.58-6.56.25.08.5.17.76.24,1.05.33,2.16.63,3.31.88a71.61,71.61,0,0,0,10,1.42c1,.08,2,.15,3,.2,3.58.17,7,.19,10.06.13,1.1,0,2.12-.05,3.08-.09C87.92,124.66,90.59,124.41,90.59,124.41Z"/>
      <g>
        <path class="cls-3" d="M70.79,130.9c-1.12,0-2.23-.07-3.31-.14l.2-6.19c1,.08,2,.15,3,.2Z"/>
        <path class="cls-3" d="M84.07,130c-1.18.22-2.39.4-3.62.53l.34-5.63c1.1,0,2.12-.05,3.08-.09Z"/>
        <path class="cls-3" d="M57.64,123.15l-.57,6.53c-1.31-.2-2.45-.39-3.38-.55l.64-6.86C55.38,122.6,56.49,122.9,57.64,123.15Z"/>
      </g>
    </g>
  </g>
  <g>
    <path class="cls-15" d="M91.07,86.52s-34.08,20-44,67.59c0,0-5.33,2.47-8.19-5.9,0,0-7.23.38-6.66-12.19,0,0-7.62-6.47-6.09-11l5.71-3s-2.86-5.52.57-7.23S65.75,97.37,76.6,88.61,97.35,78.71,91.07,86.52Z"/>
    <path class="cls-16" d="M39,148.73S59,109.6,76.7,95.47C76.7,95.47,57.7,107.46,39,148.73Z"/>
    <path class="cls-16" d="M29.86,122.74,76.55,92.33S41,117.6,29.86,122.74Z"/>
    <path class="cls-16" d="M32.24,136s23.18-28.7,48.88-46.41C81.12,89.61,53,112.75,32.24,136Z"/>
  </g>
  <g>
    <g>
      <g>
        <path class="cls-1" d="M56.21,95.9a15.12,15.12,0,0,0-2.29,7.21c0,3.71-3.78,5.42-4.64,2.42s.43-5.21-1.86-4.92-2.92,4.28-2.5,7.35.15,4.21-1.85,3.93-3-1.21-3.93-4.57c0,0-3,.71-3.28-3.5,0,0-3.07.29-2.22-4.35,0,0-1.28-1.15,1.36-5.79s17.35-9.42,17.35-9.42Z"/>
        <path class="cls-1" d="M39.36,108.46a10.93,10.93,0,0,1,.78-7.35"/>
        <path class="cls-1" d="M35.86,104.61a10.47,10.47,0,0,1,1.57-6.71"/>
        <path class="cls-1" d="M33.57,100.39s-.14-4.07,2.43-5.78"/>
      </g>
      <g>
        <path class="cls-2" d="M102.3,97.08s-.58-.18-1.66-.47a100.63,100.63,0,0,0-27.09-2.85c-7.09.2-11.43.89-14.09,1.62-3.61,1-4.09,2.08-4.09,2.08L52,83.67s1.7-.33,4.47-.8c8-1.38,25-4,34.93-3.68a38.3,38.3,0,0,1,8.32,1c5.59,1.46,6.4,4.4,7.3,8.51C108.21,94.32,102.3,97.08,102.3,97.08Z"/>
        <path class="cls-3" d="M59.46,95.38c-3.61,1-4.09,2.08-4.09,2.08L52,83.67s1.7-.33,4.47-.8A31.69,31.69,0,0,1,59.46,95.38Z"/>
        <path class="cls-3" d="M102.3,97.08s-.58-.18-1.66-.47a16.17,16.17,0,0,0,1.86-5.71c.87-5.57-1.27-9-2.83-10.7,5.59,1.46,6.4,4.4,7.3,8.51C108.21,94.32,102.3,97.08,102.3,97.08Z"/>
      </g>
    </g>
    <path class="cls-17" d="M114.3,102.7l-.86,2.29s-4.28-2.19-7.23.09-2.1,4.86-2.1,4.86-3.8-.38-2.19,2.57l1.15,1.52-1.62,1.33s-5-5,.38-7a6.59,6.59,0,0,1,5-6.09C111.73,100.89,114.3,102.7,114.3,102.7Z"/>
  </g>
</svg>
