<svg id="Layer_1" data-name="Layer 1" xmlns="http://www.w3.org/2000/svg" width="168" height="219.53" viewBox="0 0 168 219.53">
  <defs>
    <style>
      .cls-1, .cls-6 {
        fill: #fbd3c7;
      }

      .cls-1 {
        stroke: #453323;
      }

      .cls-1, .cls-10, .cls-11, .cls-13, .cls-15, .cls-16, .cls-17, .cls-2, .cls-9 {
        stroke-miterlimit: 10;
      }

      .cls-1, .cls-10, .cls-11, .cls-13, .cls-15, .cls-16 {
        stroke-width: 0.5px;
      }

      .cls-2 {
        fill: #f7edeb;
        stroke: #bf9b82;
      }

      .cls-3 {
        fill: #2d2b21;
      }

      .cls-4 {
        fill: #fff;
      }

      .cls-5 {
        fill: #3d2e17;
      }

      .cls-7 {
        fill: #453323;
      }

      .cls-8 {
        fill: #ef8d7d;
      }

      .cls-9 {
        fill: #1044a0;
        stroke: #143d84;
        opacity: 0.25;
      }

      .cls-10, .cls-15 {
        fill: none;
      }

      .cls-10 {
        stroke: #700418;
      }

      .cls-11 {
        fill: #d81f25;
      }

      .cls-11, .cls-15 {
        stroke: #5b0c12;
      }

      .cls-12 {
        fill: #fecc51;
      }

      .cls-13 {
        fill: #fecb4b;
        stroke: #664f1c;
      }

      .cls-14 {
        fill: #4c2c17;
      }

      .cls-16 {
        fill: #6bcdf2;
        stroke: #245666;
      }

      .cls-17 {
        fill: #1d4481;
        stroke: #1a234e;
      }

      .cls-18 {
        fill: #273472;
      }
    </style>
  </defs>
  <path class="cls-1" d="M77.36,65.33s-2.85,0-8.94,18.28l12.75,9L92.6,77.71Z"/>
  <g>
    <g>
      <path class="cls-2" d="M101.84,75.84a13.9,13.9,0,0,0,6.86,6.06s.78.43,1.45-1.89S101.67,72.46,101.84,75.84Z"/>
      <path class="cls-1" d="M117.71,75.18c-2,.32-3-1.15-4.35,2.18-.47,1.18-.83,2-1.11,2.55a4.5,4.5,0,0,1-.69,1.19A15,15,0,0,1,102,75.26a2.81,2.81,0,0,0,.11.36c.07.2.17.48.3.82.74,1.89,2.53,5.57,5.77,7.49,0,0,1.12.83.39,1.47a3.18,3.18,0,0,1-1.52.56c-3.14.54-3,4.19-6.37,6.39s-10.27.12-15.25-3.95S74.17,77,73.41,67.08,84,37.27,84,37.27l8.81-4.79,8.34,0L120,40s4.92,10.37,1.4,16.59-6,8.5-3.79,13.12S119.7,74.85,117.71,75.18Z"/>
      <path class="cls-3" d="M77.69,15.34S82.34,5.81,97,8.61s21.11,10,21.11,10l-8.35-.88s13.1,6.69,19.17,18.86-7.43,19.61-7.43,19.61a17.5,17.5,0,0,0,.61-7.91,18.52,18.52,0,0,0-3.64-7.75s3.76,10.14-3.67,6.72a34.15,34.15,0,0,1-11.61-8.7s.65,12.15-11.39,15.91l.36-8.77A32.39,32.39,0,0,1,76.63,59.4l-1.72,8.11-4,10.08s-7.75-2.34-13-22S59.27,21.69,73.43,21c0,0-2.51-4.8-10.91-2.07C62.52,18.92,66.56,11.21,77.69,15.34Z"/>
      <g>
        <g>
          <ellipse class="cls-4" cx="110.26" cy="64.92" rx="5.53" ry="3.24" transform="translate(-2.85 124.73) rotate(-58.36)"/>
          <path class="cls-5" d="M113.06,66.64c-1.22,1.89-3.42,4.45-6,3.39-4-2.87.08-10.18,4.23-10.67,4.35-.39,3.37,5,1.72,7.28Zm-.09,0c1-1.79,2.11-4.8.15-6.32-3.79-1.83-9.06,6.72-5.72,9.29,2.23,1.07,4.44-1.23,5.57-3Z"/>
        </g>
        <ellipse class="cls-3" cx="111.41" cy="65.96" rx="3.62" ry="1.74" transform="translate(-3.2 126.2) rotate(-58.36)"/>
        <ellipse class="cls-4" cx="112.87" cy="63.81" rx="0.93" ry="0.59" transform="translate(-0.66 126.42) rotate(-58.36)"/>
        <path class="cls-3" d="M117.77,56.18s-1.8-7-11-.39a11.39,11.39,0,0,1,10.65-3.62S121.11,53.7,117.77,56.18Z"/>
      </g>
      <g>
        <path class="cls-1" d="M78.39,59.55S78,54.2,74.93,52.12s-8.16,3.17-6.83,10.16,4.56,10.2,10,4.25"/>
        <path class="cls-1" d="M76.1,61.52S74.94,53,70.53,56.37"/>
        <g>
          <path class="cls-6" d="M75.05,58.59A4.18,4.18,0,0,0,72,63"/>
          <path class="cls-7" d="M75.06,58.61A6.69,6.69,0,0,0,72,63a3.94,3.94,0,0,1,.66-2.82,3.89,3.89,0,0,1,2.42-1.6Z"/>
        </g>
      </g>
      <g>
        <path class="cls-6" d="M103.08,73.69a2.9,2.9,0,0,1-3.7,1.51"/>
        <path class="cls-7" d="M103.11,73.7c0,1.79-2.45,2.63-3.73,1.52v0a3.6,3.6,0,0,0,2.13,0c1-.36,1.1-.82,1.59-1.42Z"/>
      </g>
      <path class="cls-8" d="M112.25,79.91a4.5,4.5,0,0,1-.69,1.19A15,15,0,0,1,102,75.26a2.81,2.81,0,0,0,.11.36,4,4,0,0,1-.23-.58,20.35,20.35,0,0,0,8.4,4.47c2.58.47,1.93.38,1.93.38S112.23,79.9,112.25,79.91Z"/>
      <path class="cls-8" d="M101.94,75.53s0,.18.08.49l-.17-.18Z"/>
      <path class="cls-8" d="M108.59,85.4a10.92,10.92,0,0,1-2.72-2.08A14.28,14.28,0,0,1,102,76l.41.42c.74,1.89,2.53,5.57,5.77,7.49C108.2,83.93,109.32,84.76,108.59,85.4Z"/>
    </g>
    <g>
      <path class="cls-9" d="M80.15,55.66l6.25,1.51s3.07-2.39,17.09-1,14.67,5.29,12.57,11.52A2.43,2.43,0,0,0,113,70.06c-.29,3-11.82,1.79-26.94-10.17l-7.31-2Z"/>
      <path class="cls-10" d="M80.15,55.66l6.25,1.51s3.07-2.39,17.09-1,14.67,5.29,12.57,11.52A2.43,2.43,0,0,0,113,70.06c-.29,3-11.82,1.79-26.94-10.17l-7.31-2Z"/>
    </g>
  </g>
  <g>
    <path class="cls-1" d="M122,74.42a7.84,7.84,0,0,1,3.29-5.52c3-2.05,5.09-1.81,6.09-3.52,0,0,2.57.19,1.43,3.24,0,0,2.61-.77,3,.71a2.34,2.34,0,0,1-.28,2.24s3.81.52,2,4.28c0,0,3.15.71.72,4,0,0,2.95,1.52-1.43,4.57s-10.28.52-10.28.52L122,74.23"/>
    <path class="cls-1" d="M125.87,71.52s5-1,6.95-2.9"/>
  </g>
  <path class="cls-11" d="M90.93,99.17s-.08.14-.2.41c-1,2.07-4.91,12.09-2.51,33,0,0-14,12.14-37,4.43s-.57,0-.57,0,3.29-41.56,10-49.56S90.93,99.17,90.93,99.17Z"/>
  <g>
    <path class="cls-11" d="M128.77,85.47c-.89,1-1.79,1.92-2.72,2.82A95.73,95.73,0,0,1,102.93,105c-9.58.85-31.28-6.28-31.28-6.28l-.18.35-2,3.79c-15.13-15.57-1.14-23.14-1.14-23.14l1,.27c22.81,6,31.82,9.3,31.82,9.3,8.11-1.62,15.13-8.92,18.53-13,1.39-1.68,2.18-2.83,2.18-2.83C128.48,80.47,128.77,85.47,128.77,85.47Z"/>
    <path class="cls-12" d="M71.47,99.1l-2,3.79c-15.13-15.57-1.14-23.14-1.14-23.14l1,.27C67.08,82,60.47,89.2,71.47,99.1Z"/>
    <path class="cls-12" d="M128.77,85.47c-.89,1-1.79,1.92-2.72,2.82a18.82,18.82,0,0,0-6.31-12c1.39-1.68,2.18-2.83,2.18-2.83C128.48,80.47,128.77,85.47,128.77,85.47Z"/>
  </g>
  <g>
    <g>
      <path class="cls-13" d="M99.31,144.91c.12.52.24,1.14.34,1.88l0,.36c.44,5.76-3.81,31.07.69,35.64h0a25,25,0,0,1,10.89,0c5,1.16,8.74,4.94,9.12,8.51a5.69,5.69,0,0,1-.09,1.7,30.3,30.3,0,0,1-22.72,3.92s-6.36,1.11-9.69-1.36a2.65,2.65,0,0,1-1.28-2.06c-.11-2,1.41-4.52,1.05-9.1a43.78,43.78,0,0,0-2.73-11.56c-.33-.83-.66-1.61-1-2.31-.88-2-1.53-3.41-1.53-3.41s4-11.33,15.12-24.83C97.55,142.31,98.59,142,99.31,144.91Z"/>
      <path class="cls-14" d="M120.38,191.32a5.69,5.69,0,0,1-.09,1.7,30.3,30.3,0,0,1-22.72,3.92s-6.36,1.11-9.69-1.36a2.65,2.65,0,0,1-1.28-2.06c1.47,1,4.69,2.2,11.52,1.34C98.12,194.86,106.94,197.32,120.38,191.32Z"/>
      <path class="cls-14" d="M99.31,144.91c.12.52.24,1.14.34,1.88l0,.36c-3.17,5-11.91,18.91-14.76,25.71-.33-.83-.66-1.61-1-2.31A287.87,287.87,0,0,1,99.31,144.91Z"/>
      <path class="cls-15" d="M94.85,187a18.82,18.82,0,0,1,5.9-4.39"/>
    </g>
    <polygon class="cls-11" points="76.08 151.72 81.93 165 93.07 165.57 90.07 151.44 82.65 147.87 76.08 151.72"/>
    <path class="cls-11" d="M64.37,149.94s5.57,4.14,19.92,6.21l-2,7.21,27.42-7s1.93-3.07-2-7.78a38.28,38.28,0,0,0-7.86-7.21s-9.06-2.93-24.34,2S64.37,149.94,64.37,149.94Z"/>
    <g>
      <path class="cls-13" d="M110.36,157a20.25,20.25,0,0,1-1.08,1.76l-.24.32c-3.81,5-25.44,22.24-25.18,29.24h0a26.92,26.92,0,0,1,8.64,8c3.14,4.61,3.36,10.39,1.08,13.54a5.94,5.94,0,0,1-1.29,1.31,32.4,32.4,0,0,1-20.86-13.5s-5.85-3.78-6.7-8.21a2.88,2.88,0,0,1,.47-2.6c1.32-1.65,4.79-2.08,7.81-6C75.2,178,77.29,173,78.77,169c.34-.92.64-1.78.91-2.57.78-2.29,1.25-3.87,1.25-3.87s11.36-6.2,29.92-8.92C110.85,153.65,111.93,154.12,110.36,157Z"/>
      <path class="cls-14" d="M93.58,209.89a5.94,5.94,0,0,1-1.29,1.31,32.4,32.4,0,0,1-20.86-13.5s-5.85-3.78-6.7-8.21a2.88,2.88,0,0,1,.47-2.6c.42,1.9,2.13,5.21,8.17,9.53C73.37,196.42,78.59,204.88,93.58,209.89Z"/>
      <path class="cls-14" d="M110.36,157a20.25,20.25,0,0,1-1.08,1.76l-.24.32c-6.1,1.68-23.1,6.51-30.27,9.9.34-.92.64-1.78.91-2.57A303.48,303.48,0,0,1,110.36,157Z"/>
      <path class="cls-15" d="M76.44,187.71a19.85,19.85,0,0,1,7.85.78"/>
    </g>
    <path class="cls-13" d="M53,139.3s.21,8.21,14.7,12.64c0,0-1.21-6.36,14.85-8.71s20.28.35,20.28.35-7.21-6.49-13.92-9.35C88.86,134.23,63.51,142.8,53,139.3Z"/>
    <g>
      <path class="cls-16" d="M88.06,136.4a15.26,15.26,0,0,1-2.78,2,40.39,40.39,0,0,1-5.5,2.61,21.26,21.26,0,0,1-3.11.95,27.65,27.65,0,0,1-3.09.54,52.2,52.2,0,0,1-10.81.08c-1.12-.09-2.19-.21-3.17-.33-3.85-.49-6.52-1.11-6.52-1.11a10.13,10.13,0,0,1-.28-5.42c2.24.44,4.34.76,6.34,1,1.08.13,2.13.22,3.14.28a51.92,51.92,0,0,0,10.43-.29c1.09-.14,2.12-.32,3.09-.53a31.37,31.37,0,0,0,8.25-2.89,21.54,21.54,0,0,0,2.72-1.68,11.37,11.37,0,0,0,1.68-1.44l1,4S89.55,135,88.06,136.4Z"/>
      <path class="cls-13" d="M62.77,142.59c-1.12-.09-2.19-.21-3.17-.33l-.46-5.55c1.08.13,2.13.22,3.14.28Z"/>
      <path class="cls-13" d="M76.67,142a27.65,27.65,0,0,1-3.09.54l-.87-5.81c1.09-.14,2.12-.32,3.09-.53Z"/>
      <path class="cls-13" d="M88.06,136.4a15.26,15.26,0,0,1-2.78,2l-1.23-5.13a21.54,21.54,0,0,0,2.72-1.68Z"/>
    </g>
  </g>
  <path class="cls-12" d="M87.93,109l-.21,2.57s-4.46.24-4.81,4S85,120.33,85,120.33s-2.87,2.53.39,3.36l1.89.2-.13,2.1s-7.06.17-4.82-5a6.6,6.6,0,0,1-1.08-7.78A7.19,7.19,0,0,1,87.93,109Z"/>
  <g>
    <path class="cls-17" d="M70.08,80.47s-7-1.14-8.71,15.28S51.23,144,47.52,149c0,0-12.42,7-15.28-5l-3.86,3.86a27.59,27.59,0,0,1-15.85-27.42l17.85-11s-9.71-9.14,2.43-27c0,0,3,4.71,6.43,5.71,0,0-2.14-10.85,9.28-15.71,0,0,.14,11.14,10.28,10.43,0,0,2.43.85,5.14-1.72S70.08,80.47,70.08,80.47Z"/>
    <path class="cls-18" d="M30.53,145.15a195.33,195.33,0,0,0,12.56-19.27S39.24,139.3,30.53,145.15Z"/>
    <path class="cls-18" d="M16.25,136.73s33.13-27.27,40.69-43.41C56.94,93.32,47.09,116.31,16.25,136.73Z"/>
    <path class="cls-18" d="M29.53,109.17s23.13-10.28,34-25.56C63.51,83.61,51.37,102.32,29.53,109.17Z"/>
    <path class="cls-18" d="M37.52,87.61S50.66,92.32,61.8,82.9A20.51,20.51,0,0,1,37.52,87.61Z"/>
  </g>
</svg>
