<svg id="Layer_1" data-name="Layer 1" xmlns="http://www.w3.org/2000/svg" xmlns:xlink="http://www.w3.org/1999/xlink" width="162.71" height="249.18" viewBox="0 0 162.71 249.18">
  <defs>
    <style>
      .cls-1, .cls-25 {
        fill: none;
      }

      .cls-2 {
        fill: #1d4481;
        stroke: #1a234e;
      }

      .cls-12, .cls-2, .cls-24, .cls-25, .cls-4, .cls-5, .cls-7, .cls-8, .cls-9 {
        stroke-miterlimit: 10;
      }

      .cls-3 {
        fill: #273472;
      }

      .cls-15, .cls-4 {
        fill: #f8d0c5;
      }

      .cls-4 {
        stroke: #6e4c2d;
      }

      .cls-5 {
        fill: #d72027;
        stroke: #6c0d1a;
      }

      .cls-6 {
        fill: #c02126;
      }

      .cls-12, .cls-7 {
        fill: #fdca4a;
      }

      .cls-7 {
        stroke: #715421;
      }

      .cls-8 {
        fill: #6cccf0;
        stroke: #3e2e14;
      }

      .cls-9 {
        fill: #faa919;
        stroke: #49301f;
      }

      .cls-10 {
        fill: #fdcb52;
      }

      .cls-11 {
        fill: #4c2d19;
      }

      .cls-12 {
        stroke: #553e16;
      }

      .cls-13 {
        fill: #da9c8d;
      }

      .cls-14 {
        fill: #342517;
      }

      .cls-16 {
        fill: #6e4c2d;
      }

      .cls-17, .cls-26 {
        fill: #fff;
      }

      .cls-18 {
        fill: #3d2e18;
      }

      .cls-19 {
        fill: #2d2b21;
      }

      .cls-20 {
        fill: #6d2926;
      }

      .cls-21 {
        fill: #d26653;
      }

      .cls-22 {
        fill: #f5968e;
      }

      .cls-23 {
        fill: #e8817d;
      }

      .cls-24 {
        fill: #18479a;
        stroke: #214081;
        opacity: 0.25;
      }

      .cls-25 {
        stroke: #700d1b;
      }

      .cls-26 {
        opacity: 0.35;
      }

      .cls-27 {
        clip-path: url(#clip-path);
      }

      .cls-28 {
        fill: #6de2fe;
      }

      .cls-29 {
        fill: #b3c661;
      }

      .cls-30 {
        clip-path: url(#clip-path-2);
      }

      .cls-31 {
        opacity: 0.21;
      }

      .cls-32 {
        clip-path: url(#clip-path-3);
      }

      .cls-33 {
        fill: #23490f;
      }

      .cls-34 {
        opacity: 0.56;
      }

      .cls-35 {
        clip-path: url(#clip-path-4);
      }

      .cls-36 {
        clip-path: url(#clip-path-5);
      }

      .cls-37 {
        fill: url(#radial-gradient);
      }

      .cls-38 {
        clip-path: url(#clip-path-6);
      }

      .cls-39 {
        clip-path: url(#clip-path-7);
      }

      .cls-40 {
        fill: url(#linear-gradient);
      }
    </style>
    <clipPath id="clip-path">
      <rect class="cls-1" x="2314.91" y="-248.71" width="1280" height="720"/>
    </clipPath>
    <clipPath id="clip-path-2">
      <rect class="cls-1" x="-4465.26" y="-329.31" width="12896.26" height="900"/>
    </clipPath>
    <clipPath id="clip-path-3">
      <rect class="cls-1" x="-1061.75" y="181.97" width="1885.03" height="374.76"/>
    </clipPath>
    <clipPath id="clip-path-4">
      <rect class="cls-1" x="-986.32" y="194.65" width="1712.33" height="374.76"/>
    </clipPath>
    <clipPath id="clip-path-5">
      <path class="cls-1" d="M42.07,205.58c24.44,11,47.49,14,73.48,14a544,544,0,0,1,103.22,9.58l-15.38,11.45q24.72,5.52,49,13.39c4,1.31,9,3.83,8.17,9.59a8.33,8.33,0,0,1-3.9,6.09l-31,18.13c-2.15,1.25-4.57,2.87-4.24,6.33a5.87,5.87,0,0,0,4.79,5.5c63,8.1,126.41,15.92,187.59,36a9.17,9.17,0,0,1,5.9,7.59c1.52,10.77-14.91,10.28-20.45,19.24a159.57,159.57,0,0,1,49.56,8c3.36,1.1,7.15,2.74,7.23,8a10.18,10.18,0,0,1-3.11,7.51,92.41,92.41,0,0,1-35.14,21c56,3.56,111.46,18.74,163.24,44.66,6.59,3.3,14.13,8.22,12.82,18.29a17.59,17.59,0,0,1-4.79,10c-16.23,16.46-36.78,24.25-56.87,31.77,61.36,5,122.05,21.89,179.05,49.75,2.88,1.4,6,3.14,7.26,6.57a7.9,7.9,0,0,1,.53,2.7H-972.38V527l8.36,1.66s127.76-50.1,208.83-34.18a.42.42,0,0,0,0-.8c-40.67-6.6-110.33-37-149.76-50.72-8.48-2.94-18.94-9.44-16.23-20.69.88-3.62,4-7.82,6.88-9.38,46.21-25.43,155.07-17.65,109.9-29.7-25.62-6.83,75.51-23.87,103.81-28.82-6.49.18-49.91-7.66-26.87-23.16,10.4-3.91,64.18-22,70.59-23.24,47.15-9.25,80.71-7,119.06-4.83,19.21,1.11,48.19,6.22,72.12,5.89-3.22-5-57.44-24.39-40.5-30.16,56.62-19.28,93.51-39.31,129.76-38.37,50.18,1.3,110.63-11,161.43-15.66-4.93-3.49-3.83-13.26.64-17.56s10.64-4.64,16.36-4.82L-19.42,197c4.81-.14,9.46-.26,14-.26,16.3,0,31.27,1.53,47.47,8.83"/>
    </clipPath>
    <radialGradient id="radial-gradient" cx="-7596.7" cy="571.64" r="1" gradientTransform="matrix(608.17, 0, 0, -367.21, 4619989.81, 210298.84)" gradientUnits="userSpaceOnUse">
      <stop offset="0" stop-color="#61dfff"/>
      <stop offset="0.14" stop-color="#5adaff"/>
      <stop offset="0.35" stop-color="#47caff"/>
      <stop offset="0.59" stop-color="#28b1ff"/>
      <stop offset="0.84" stop-color="#0091ff"/>
      <stop offset="1" stop-color="#0091ff"/>
    </radialGradient>
    <clipPath id="clip-path-6">
      <rect class="cls-1" x="2341.78" y="3825.97" width="1280" height="720"/>
    </clipPath>
    <clipPath id="clip-path-7">
      <rect class="cls-1" x="2181.78" y="3735.97" width="1600" height="900"/>
    </clipPath>
    <linearGradient id="linear-gradient" x1="-2635.21" y1="5837.94" x2="-2635.21" y2="-1145.9" gradientUnits="userSpaceOnUse">
      <stop offset="0" stop-color="#a4f2ff"/>
      <stop offset="0.23" stop-color="#69e3ff"/>
      <stop offset="0.45" stop-color="#34d5ff"/>
      <stop offset="0.57" stop-color="#1fd0ff"/>
      <stop offset="0.65" stop-color="#25c3ff"/>
      <stop offset="0.81" stop-color="#36a2ff"/>
      <stop offset="1" stop-color="#4d73ff"/>
    </linearGradient>
  </defs>
  <g>
    <g>
      <path class="cls-2" d="M51.29,115.65S35.19,159.57,37.38,189c0,0,.27,10.92,13.64,5.19S74.2,192,80.21,195.85s17.73,5.73,27-6,17.19.55,25.38-6.82,12.82-14.73,7.91-20.73c0,0-10.91-.82-37.1-40.38S51.29,115.65,51.29,115.65Z"/>
      <path class="cls-3" d="M114.31,184.4s-17.19-24.83-22.1-59.48c0,0,12,48.56,25.37,58.93Z"/>
      <path class="cls-3" d="M97.67,197.22s-13.64-30-19.65-84c0,0,3.28,50.2,17.74,85.12Z"/>
      <path class="cls-3" d="M54.56,192.85s8.19-21.55,7.91-64.65c0,0-3.27,50.47-11.45,66Z"/>
      <path class="cls-3" d="M138.86,175.67s-19.64-10.37-33.28-44.2C105.58,131.47,120.58,175.39,138.86,175.67Z"/>
    </g>
    <path class="cls-4" d="M51.84,95.8s2.82-1.88,8.94-3.13V87.49l18.67,1.57,1.41,3.45,7.31,2S80.07,108.35,51.84,95.8Z"/>
    <g>
      <path class="cls-4" d="M33.68,155.42s-1.83-2.76,2.45-3.13a16.2,16.2,0,0,1,7.44,1.07l-1.82,3.26-4.1,1.54-3.4-.68-1-2.94"/>
      <path class="cls-4" d="M29.15,157.05l-1.74-2.28A2.75,2.75,0,0,1,31.63,153l2.81,2.11,6.37.95,2.76-2.74L39.44,159l-5.07,1.51Z"/>
      <path class="cls-4" d="M25.39,157.53s-3-2-.1-3.31,5,.63,7.37,2.93,8.49-1.62,8.49-1.62l1.75,1.89-4.18,4-6.76.88Z"/>
      <path class="cls-4" d="M36.7,151.23,40,155.11s-5.81,1.4-7.52,4.85c0,0-4.13-4.39-7.16-3.11s1.51,6.16,7.58,6.32,13.45-3.32,15.51-7.34S50.26,144.51,44,142.3,36.7,151.23,36.7,151.23Z"/>
    </g>
    <path class="cls-5" d="M44.5,142.21A17.8,17.8,0,0,1,38.08,151l-.95.7s-1.45-.74-3.66-2c-8.11-4.66-26.41-16.34-20.5-24,7.13-9.19,29.49-27.13,29.49-27.13l.63,1.43.63,18.85-13.49,8.85,11.18,11.37Z"/>
    <path class="cls-5" d="M133.41,116.78,132.93,128a30.59,30.59,0,0,1-3.82,1.28c-4.89,1.35-13.74,2.82-22.05-.76l-11.56-9,3.4-20.22s.71.07,3.06,2.82,6.53,8.43,13.39,15.53l12.12-.56Z"/>
    <g>
      <g>
        <path class="cls-5" d="M100.15,100l-.3,1.2L96.7,113.86l-2.82,30.27-.94,3.36V148l.73.45.73.82.11,1.09c-.27,14.37,1.57,51.48,1.57,66.55l-4.4.52-10.27,1.19L74.7,177.55l-.87-5.37-.34-1.59-1.38.17-.82.1-.21,1.23-7.32,54.82L49.17,219,47.45,151l1.25-.55v-2.72L47.76,145l-5.08-32.53-.35-4-.85-9.62S46.22,95.73,56,93.54l2.37-.49c1.25,3.46,7,7,13.86,7,6.48,0,11.94-3.23,13.6-6.39a14,14,0,0,1,2.34.65c1.25.57,2.64.58,4.74,1.33a24.89,24.89,0,0,1,6.6,3.82C99.72,99.61,99.94,99.77,100.15,100Z"/>
        <path class="cls-6" d="M92.94,147.49V148l.73.45.73.82.11,1.09c-.27,14.37,1.57,51.48,1.57,66.55l-4.4.52L88.86,164,74.7,177.55l-.87-5.37-.34-1.59-1.38.17-.51-5.9,12.87-23.18c2.11-28.89,5.69-41,8.44-46.05a24.89,24.89,0,0,1,6.6,3.82l.34,1.7L96.7,113.86l-2.82,30.27Z"/>
        <path class="cls-7" d="M94.3,168C70.67,184,75.19,184.78,73.19,184.08a8.77,8.77,0,0,1-.88,0c-.29,0-.59,0-.89,0s0,.3-1.17-.83c-2.11-2-7.86-6.73-22.33-16.49v-.11l-.39-10.6h0c8,2,27.12,5.44,47.06.2Z"/>
        <path class="cls-8" d="M47.13,152s23.9,5.12,47.79-.21l.23.79a11.23,11.23,0,0,1-.51,7.64h0s-20.69,6-47.72-.59h0a11.86,11.86,0,0,1,.06-7.17Z"/>
        <rect class="cls-7" x="71.18" y="153.3" width="2.82" height="10.12"/>
        <rect class="cls-7" x="57.54" y="153.31" width="2.82" height="10.12"/>
        <rect class="cls-7" x="84.13" y="153.18" width="2.82" height="10.12"/>
      </g>
      <path class="cls-9" d="M88.17,94.49c-.72,4.87-7.63,8.69-16.06,8.69-8.9,0-16.11-4.27-16.11-9.53v0q1.14-.3,2.37-.57c1.25,4,7,7,13.86,7,6.48,0,11.94-2.67,13.6-6.3C86.59,94,87.38,94.21,88.17,94.49Z"/>
      <path class="cls-10" d="M88,116.12c0-3.12-3.9-5.65-8.71-5.65-3.38,0-6.3,1.25-7.75,3.07-1.5-1.69-4.32-2.83-7.54-2.83-4.81,0-8.71,2.52-8.71,5.64,0,2.66,2.83,4.89,6.63,5.49,1.07,2.79,5.07,4.87,9.84,4.87,4.94,0,9-2.23,9.94-5.16C85.33,120.87,88,118.7,88,116.12Z"/>
      <path class="cls-5" d="M85,117.29c0-2.34-3.18-4.23-7.1-4.23-2.76,0-5.15.93-6.33,2.3a8.75,8.75,0,0,0-6.16-2.12c-3.93,0-7.11,1.89-7.11,4.22,0,2,2.31,3.66,5.42,4.11.87,2.09,4.13,3.65,8,3.65s7.39-1.67,8.11-3.87C82.82,120.84,85,119.22,85,117.29Z"/>
    </g>
    <g>
      <g>
        <path class="cls-11" d="M49.3,212.91l1.44,18.67s-11.58,1-11.42,7.52,17.36,6.78,22.45,1.92l.63-.25c1.5-.59,3.61-1.1,3.56-2.54-.08-2.18-1.68-6.2-3.42-8.55-2.9-3.9,0-15.35,0-15.35S52.56,206.17,49.3,212.91Z"/>
        <path class="cls-12" d="M47.76,197.86l2,29.87c.08,1.1-.09,1.77-1.32,2-3.33.66-9.39,2.49-9.28,7.2.16,6.49,17.37,6.77,22.45,1.91l1.87-.56a2.74,2.74,0,0,0,2.09-2.86,46.38,46.38,0,0,1-.12-8.38,133.94,133.94,0,0,0,.31-13.91S51,191.12,47.76,197.86Z"/>
      </g>
      <path class="cls-12" d="M41.17,232.77s3.77-5.11,18.59-2.86"/>
      <path class="cls-11" d="M48,201.44a68.15,68.15,0,0,1,11.83,11.05h0c.79.91,1.59,1.88,2.42,2.92h0c1,1.2,1.93,2.49,2.91,3.86l.11.1v.16l-.08,1.15,0,.64v.06c-.78-1.12-1.86-2.63-3.2-4.34s-3.22-4-5.24-6.11a67.43,67.43,0,0,0-8.58-7.77Z"/>
    </g>
    <g>
      <g>
        <path class="cls-11" d="M96.09,211.74,94.6,230.42s11.86,1,11.69,7.51-17.79,6.79-23,1.93l-.65-.25c-1.53-.59-2.74-1.91-2.46-3.35.83-4.17.77-7.82,2.55-10.17,3-3.9-.17-12.92-.17-12.92S92.76,205,96.09,211.74Z"/>
        <path class="cls-12" d="M97.85,196.69l-2,29.86c-.08,1.11.09,1.78,1.32,2,3.34.65,9.39,2.49,9.28,7.2-.16,6.49-17.37,6.77-22.45,1.91l-2.73-.76s.31,1.07-.32-10c-.47-8.25-1.1-15-1.1-15S94.59,190,97.85,196.69Z"/>
      </g>
      <path class="cls-12" d="M104.44,231.6s-3.76-5.11-18.59-2.86"/>
      <path class="cls-11" d="M97.49,202a66.65,66.65,0,0,0-8.57,7.77c-2,2.15-3.79,4.26-5.25,6.12-1.34,1.71-2.42,3.21-3.2,4.34v-.06l0-.64-.08-1.16v-.15l.11-.1c1-1.37,2-2.66,2.91-3.86h0c.83-1,1.63-2,2.43-2.91h0a68,68,0,0,1,11.83-11Z"/>
    </g>
    <path class="cls-12" d="M81,227.5s-3.46,5.48.25,9.42c0,0,.58-.24,3.51,1.31"/>
    <path class="cls-5" d="M30.23,127.69s-3-3.61-10.51,0"/>
    <path class="cls-5" d="M115.35,117.62a6.87,6.87,0,0,0-7.82,4.16"/>
    <g>
      <g>
        <path class="cls-4" d="M101.83,66.43c-2.39,5.15-7.52,7.44-11.75,5.71s-2.73-4.61-.34-9.75,2.51-4.57,6.64-6.67C105.43,51.14,104.21,61.29,101.83,66.43Z"/>
        <path class="cls-13" d="M98,57.83a2.27,2.27,0,0,1,2,.09,2.53,2.53,0,0,1,.82,2.38A14.3,14.3,0,0,1,97,68.7a3.66,3.66,0,0,1-1.18,1,1.45,1.45,0,0,1-1.48-.08A1.48,1.48,0,0,1,94,68.07c.35-1.39,1.64-2.36,2.69-3.4a2.83,2.83,0,0,0,.7-1,1,1,0,0,0-.17-1.09,1.46,1.46,0,0,0-.86-.34,8.41,8.41,0,0,0-1.94.07c-.29-.91.48-1.82,1-2.49A6,6,0,0,1,98,57.83Z"/>
      </g>
      <path class="cls-4" d="M90.22,34.4c-16.91-8.81,4.64-22-17.38-20.73C51.47,14.89,39.48,26.21,39.79,44.82c.14,8.6,3.29,17.48,3.26,18C41.79,84.65,63.68,94.68,76.64,93.94c5.66-.33,8.07-3.33,12.9-7.5,5.91-5.11,10.33-12.66,9.67-27.92C99.19,58.06,104.32,41.74,90.22,34.4Z"/>
      <path class="cls-13" d="M52.68,35.27s4.86,6.12,28.86,4.79l-.81-3.14s1.63,4.37,15.69,6l2.94,16.89,2.3-35.68-50.8-1.41L43.45,31l.8,9.49s-4,19.29-2.87,25.71l.75-1.11a35.19,35.19,0,0,0,5.62-13.94h0S52.7,52.92,52.68,35.27Z"/>
      <path class="cls-14" d="M50.54,30.63s-2.13,7.55,30.07,7.7c0,0-.85-.34-4-7.64,4,9,12.38,8.81,18.57,10.41l2.2-9.5,2,28.26S102,51.48,102.72,48c0,0,2.52-9.88.72-16.1a33.26,33.26,0,0,1,2.17,5.93s7.67-15.38-13-27c0,0,1.18-1.31,6.19.88,0,0-9.57-10-28.55-9.82-9.93.1-17.44.12-21.57,9.88,0,0-12-7.67-16.84,7.27,0,0,8.25-4.66,10.77-1.38,0,0-9.84,1.74-11.75,15.91C29,46.91,32.89,56.33,40.36,65.94a26.16,26.16,0,0,0,5.07-20.17l2.91,4.38S53.49,46.31,50.54,30.63Z"/>
      <g>
        <path class="cls-15" d="M74.14,67.35s-.28,2.18,3.22,1.89c6.4-.54,2.11-4.33,2.11-4.33"/>
        <path class="cls-16" d="M74.14,67.35c.62,2,3,1.39,4.57,1.23,2.61-.41,2.06-2,.76-3.67a3.5,3.5,0,0,1,1.71,2.44c.17,2.87-8.07,3.52-7,0Z"/>
      </g>
      <g>
        <path class="cls-4" d="M43.26,65.38a10,10,0,0,0-6-6.15c-7.81-4-6.55,6.08-4.4,11.06s7.4,8.17,11.85,3.84"/>
        <path class="cls-13" d="M35.94,61.44a1.7,1.7,0,0,0-1.67.22,2.94,2.94,0,0,0-.65,2.43A14.87,14.87,0,0,0,37,72.24a3.15,3.15,0,0,0,1,.91A1.11,1.11,0,0,0,39.3,73a1.72,1.72,0,0,0,.29-1.58c-.33-1.37-1.45-2.25-2.37-3.21a2.73,2.73,0,0,1-.62-.91,1.21,1.21,0,0,1,.12-1.1,1.33,1.33,0,0,1,.73-.4,6.09,6.09,0,0,1,1.65-.06,3,3,0,0,0-.92-2.41A4.82,4.82,0,0,0,35.94,61.44Z"/>
      </g>
      <g>
        <g>
          <ellipse class="cls-17" cx="63.21" cy="58.68" rx="5.84" ry="6.14" transform="translate(-5.28 6.26) rotate(-5.44)"/>
          <path class="cls-18" d="M63.8,64.85c-5.34.58-9-6.08-5.78-10.51a6.24,6.24,0,0,1,9.46-.9c4,3.75,1.66,11-3.68,11.41Zm0-.1c7.55-1,6.46-12.56-1.16-12.08-7.56,1-6.45,12.53,1.16,12.08Z"/>
        </g>
        <ellipse class="cls-19" cx="62.92" cy="58.64" rx="3.62" ry="3.39" transform="translate(1.81 119.17) rotate(-87.71)"/>
        <ellipse class="cls-17" cx="65.01" cy="56.96" rx="1.02" ry="1.09" transform="translate(-11.16 16.11) rotate(-13.02)"/>
      </g>
      <g>
        <g>
          <ellipse class="cls-17" cx="86.97" cy="59.14" rx="5.71" ry="6.14" transform="translate(-5.22 8.51) rotate(-5.44)"/>
          <path class="cls-18" d="M87.56,65.3c-5.28.55-8.75-6.11-5.72-10.48a6.07,6.07,0,0,1,9.34-.89c3.8,3.72,1.66,10.91-3.62,11.37Zm0-.1c5.08-.47,6.72-7.43,3-10.63a5.41,5.41,0,0,0-8.06.77c-3,3.83-.07,10.36,5,9.86Z"/>
        </g>
        <ellipse class="cls-19" cx="86.65" cy="58.58" rx="3.39" ry="3.62" transform="translate(-10.97 21.02) rotate(-13.02)"/>
        <ellipse class="cls-17" cx="88.7" cy="57.21" rx="1.02" ry="1.09" transform="translate(-10.61 21.45) rotate(-13.02)"/>
      </g>
      <path class="cls-19" d="M93.58,49.69s-8.41-6-11.51-.78c0,0,.72-8.06,8.4-2.36Z"/>
      <path class="cls-19" d="M55.47,50.59s7.68-7.06,11.44-2.29c0,0-1-7.82-8.64-1.24Z"/>
      <g>
        <path class="cls-20" d="M63.44,74.62C64.88,77,69.57,84.44,76,84.9c3.86.28,5.56-3,7.24-5.37.44-.62.84-1.26,1.25-1.91h0c.21-.33.41-.66.62-1a19.88,19.88,0,0,1,1.8-2.41h0c.16-.18.32-.35.49-.51l.2-.19s-5.44,3.6-22.37.75l-1.41-.35-.56-.14-.31-.08S63.09,74.05,63.44,74.62Z"/>
        <path class="cls-21" d="M81.41,80.94a4.33,4.33,0,0,0-3.78-.68,8.53,8.53,0,0,0-6.07,1.34S77.06,84.87,81.41,80.94Z"/>
        <path class="cls-17" d="M63.22,73.78c7.91,6.38,14.88,6.13,18.64,4.77,1.6-.58,1.39-3.47,4.06-3.74a7.33,7.33,0,0,0,1.44-1.1l.2-.19s-5.44,3.6-22.37.75l-1.41-.35Z"/>
        <path class="cls-22" d="M63.44,74.62C64.88,77,71,86.4,77,85.41c6.83-1.12,7.61-8,9.29-10.42C79.47,87.37,72,84,63.44,74.62Z"/>
        <path class="cls-23" d="M63.78,73.92c12.91,5.44,20.32,2.14,23.09.31h0l.07,0c.14-.17.29-.33.42-.47l.2-.19s-5.44,3.6-22.37.75Z"/>
        <path class="cls-21" d="M63.71,72.56s-2,.39-1,2.51C62.69,75.07,61.2,72.32,63.71,72.56Z"/>
        <path class="cls-21" d="M87.14,72.81s1.23.28.52,2C87.66,74.81,89,73.06,87.14,72.81Z"/>
      </g>
    </g>
    <g>
      <path class="cls-24" d="M99.42,61.76c-2.43,3.71-8.55,8-13.6,6.66A6.93,6.93,0,0,1,84,67.65,7.71,7.71,0,0,1,82.07,66c-5.24-6.12-8.35-1.31-8.35-1.31-17.17,7.84-30.75,0-30.75,0l-1.8-3.87C56.86,45.76,69,50.94,73,54s8.08-.24,8.08-.24a16.27,16.27,0,0,1,12.5-1.43,17,17,0,0,1,2.38.89,14.39,14.39,0,0,1,3.19,2Z"/>
      <path class="cls-25" d="M99.42,61.76c-2.43,3.71-8.55,8-13.6,6.66A6.93,6.93,0,0,1,84,67.65,7.71,7.71,0,0,1,82.07,66c-5.24-6.12-8.35-1.31-8.35-1.31-17.17,7.84-30.75,0-30.75,0l-1.8-3.87C56.86,45.76,69,50.94,73,54s8.08-.24,8.08-.24a16.27,16.27,0,0,1,12.5-1.43,17,17,0,0,1,2.38.89,14.39,14.39,0,0,1,3.19,2Z"/>
      <polygon class="cls-26" points="49.31 66.99 59.56 50.68 62.62 50.57 51.21 67.62 49.31 66.99"/>
      <path class="cls-26" d="M96,53.22,85.82,68.42A6.93,6.93,0,0,1,84,67.65l9.62-15.32A17,17,0,0,1,96,53.22Z"/>
    </g>
    <path class="cls-9" d="M44.5,142.21A17.8,17.8,0,0,1,38.08,151l-.95.7s-1.45-.74-3.66-2a18.64,18.64,0,0,0,7.94-10.6Z"/>
    <path class="cls-9" d="M133.41,116.78,132.93,128a30.59,30.59,0,0,1-3.82,1.28c-4.06-5.61-3.16-9.71-1.64-12.21Z"/>
    <g>
      <path class="cls-4" d="M129.66,123.48c.12,3.91,4.36,5.74,4.36,5.74,13.47,4.42,19.51-2.4,21.64-6.67a7.38,7.38,0,0,0,.6-1.66c.17-2.59-1-2.8-1-2.8l.29-.76a2.87,2.87,0,0,0-.06-1.3v0a2.57,2.57,0,0,0-3.44-.66c-3.35,1.76-8.77,1.8-11.85.74s-1.6-5.24-1.6-5.24c1.56-4.64-2.19-7.9-5-7.4s-3.23,3.55-2.13,5.9.34,3.28.34,3.28a10.24,10.24,0,0,0-2.54,5"/>
      <path class="cls-4" d="M145,125.34c.88,2.18,11.43-6.33,9.72-1.22"/>
      <path class="cls-4" d="M145.75,121.07a27.59,27.59,0,0,0,7.46-2.28c2.64-1.66,3.26.38,2.7,3.19"/>
      <path class="cls-4" d="M140.38,125.56c2.73-.63,7.31-2,8.09-.85,0,0,1.89,4-6.21,5.11"/>
      <path class="cls-4" d="M138.33,114.76a8.22,8.22,0,0,1,2.15,4.37,4.85,4.85,0,0,1-1,4.13"/>
      <path class="cls-4" d="M155,115.54a2.22,2.22,0,0,1-.08,2.66"/>
    </g>
    <polygon class="cls-7" points="38.24 102.13 43.58 119.39 41.8 98.68 38.24 102.13"/>
    <path class="cls-7" d="M99.51,99.45s-4.69,7.28-3.54,20.88c0,0,1.26-13,5-19.45Z"/>
  </g>
  <g class="cls-27">
    <path class="cls-28" d="M4362.94,399.15l0-92.72V276.05l-.13-458.67,0-147.62-15622.49.31.07,186.17h0l0,129.3v105l0,63.92v1.62c1.21.12,1.78,3.95,2,9.52.19,5.81,0,13.52-.41,20.89-.35,7.21-.83,14.11-1.15,18.58h0c-.19,2.48-.35,4.21-.38,4.83v0a1.36,1.36,0,0,0,0,.24s0,0,.06,0c.42.59,5.25,6.8,7.85,7.15l0,89.06,0,59.93c4.38,15.44,6.54,30.05,2.35,46.16q-1.14,4.37-2.34,8.72l0,140.52v8h237.47l15029.66-.3h339.53l0-163.81h7.91Z"/>
    <path class="cls-29" d="M4018.3,166.15c-1354.44,31.1-9549.21,6.85-15593.33,0V321.42c8.92,9,17.3,18.81,20.46,28.3,7.48,22.42,13.62,41.68,7.89,63.74-5.81,22.4-12.69,44.54-22.2,66.63-2,4.76-4.13,9.52-6.15,14.28v76.18H4018.3Z"/>
    <g>
      <g class="cls-30">
        <g class="cls-31">
          <g class="cls-32">
            <path class="cls-33" d="M601.61,556.73l4.21,0,110.32-.54,65.45-.31c7.86,0,15.72-.17,23.58-.12,5,0,21.44,3.6,17.51-6.17-1.38-3.43-4.87-5.16-8.08-6.57a609,609,0,0,0-199.55-49.73c22.39-7.52,45.29-15.32,63.38-31.77a16.89,16.89,0,0,0,5.34-10c1.47-10.07-6.95-15-14.29-18.29A516.78,516.78,0,0,0,487.55,388.6a106,106,0,0,0,39.16-21,9.71,9.71,0,0,0,3.47-7.51c-.09-5.27-4.31-6.91-8-8a196.59,196.59,0,0,0-55.24-8c6.17-9,24.49-8.46,22.8-19.24a9.46,9.46,0,0,0-6.58-7.59c-68.19-20.08-138.84-27.9-209.07-36a6.15,6.15,0,0,1-5.34-5.5c-.37-3.46,2.33-5.08,4.72-6.33L308,251.28a8.31,8.31,0,0,0,4.36-6.08c.87-5.76-4.6-8.28-9.11-9.59q-27.06-7.87-54.63-13.39l17.14-11.45a673.63,673.63,0,0,0-115-9.58c-29,.07-41.61,1.76-68.86-9.26-23.09-9.34-13.61-10.47-38.21-9.8-66.34,1.82-182.95,3.92-249.29,5.74-6.37.17-10.13,3-15.12,7.33s-2.41,7.78,3.09,11.27c-56.62,4.64-124,17-179.92,15.66-40.39-.94-81.51,19.09-144.61,38.37-18.88,5.76,32,21.1,35.58,26.14-79.9,1-124.64-10.94-203.52,2.95-7.13,1.26-67.07,19.33-78.66,23.24-25.68,15.49,22.71,23.33,29.94,23.15-31.54,5-144.25,22-115.69,28.82,50.34,12-71,4.27-122.48,29.69a16.87,16.87,0,0,0-7.67,9.38c-3,11.25,8.63,17.75,18.08,20.69,44,13.69,121.59,44.12,166.91,50.71a.41.41,0,0,1,0,.8c-90.35-15.91-232.74,34.18-232.74,34.18l-9.31-1.66v48.14Z"/>
          </g>
        </g>
        <g class="cls-34">
          <g class="cls-35">
            <path class="cls-33" d="M524.65,569.41l3.83,0,100.2-.53,59.46-.32c7.14,0,14.28-.17,21.42-.12,4.53,0,19.48,3.6,15.91-6.16-1.26-3.44-4.43-5.17-7.35-6.58A512.43,512.43,0,0,0,536.86,506c20.34-7.52,41.14-15.32,57.57-31.77a17.41,17.41,0,0,0,4.85-10c1.33-10.07-6.31-15-13-18.28-52.42-25.92-108.57-41.1-165.25-44.66a93.66,93.66,0,0,0,35.56-21,10.1,10.1,0,0,0,3.16-7.5c-.09-5.28-3.92-6.92-7.32-8a163.38,163.38,0,0,0-50.17-8c5.6-8.95,22.24-8.46,20.7-19.23a9.19,9.19,0,0,0-6-7.59c-61.94-20.09-126.12-27.91-189.92-36a5.93,5.93,0,0,1-4.85-5.5c-.33-3.46,2.12-5.08,4.29-6.34L258,264a8.35,8.35,0,0,0,4-6.09c.79-5.76-4.18-8.28-8.28-9.59Q229.06,240.43,204,234.9l15.57-11.45a558.17,558.17,0,0,0-104.5-9.58c-26.31.07-37.8,1.76-62.55-9.26-21-9.33-12.37-10.47-34.71-9.8-60.26,1.82-166.19,3.93-226.45,5.74-5.79.18-9.2,3-13.73,7.34s-2.19,7.78,2.8,11.26c-51.43,4.65-112.62,17-163.43,15.66-36.69-.94-74,19.09-131.37,38.37-17.14,5.76,29.08,21.1,32.33,26.15-72.59,1-113.23-10.94-184.87,2.94-6.48,1.26-60.93,19.33-71.46,23.24-23.33,15.5,20.63,23.33,27.2,23.15-28.65,5-131,22-105.09,28.82,45.72,12-64.48,4.27-111.26,29.7a16.59,16.59,0,0,0-7,9.37c-2.75,11.25,7.84,17.75,16.43,20.69,39.92,13.69,110.44,44.12,151.62,50.72a.41.41,0,0,1,0,.79c-82.07-15.91-211.42,34.18-211.42,34.18l-8.45-1.66v48.14Z"/>
          </g>
        </g>
      </g>
      <g class="cls-36">
        <rect class="cls-37" x="-963.81" y="200.75" width="1691.4" height="373.94"/>
      </g>
    </g>
  </g>
  <g class="cls-38">
    <g class="cls-39">
      <rect class="cls-40" x="-9231.06" y="33.57" width="13191.7" height="5525.81"/>
    </g>
  </g>
</svg>
