<svg id="Layer_1" data-name="Layer 1" xmlns="http://www.w3.org/2000/svg" width="212.47" height="242.82" viewBox="0 0 212.47 242.82">
  <defs>
    <style>
      .cls-1, .cls-12 {
        fill: #fbd3c7;
      }

      .cls-1 {
        stroke: #453323;
      }

      .cls-1, .cls-15, .cls-16, .cls-17, .cls-2, .cls-4, .cls-6, .cls-8 {
        stroke-miterlimit: 10;
      }

      .cls-1, .cls-16, .cls-17, .cls-2, .cls-4 {
        stroke-width: 0.5px;
      }

      .cls-2 {
        fill: #d81f25;
        stroke: #5b0c12;
      }

      .cls-3 {
        fill: #fecc51;
      }

      .cls-4 {
        fill: #fecb4b;
        stroke: #664f1c;
      }

      .cls-5 {
        fill: #4c2c17;
      }

      .cls-6 {
        fill: #1d4481;
        stroke: #1a234e;
      }

      .cls-7 {
        fill: #273472;
      }

      .cls-8 {
        fill: #f7edeb;
        stroke: #bf9b82;
      }

      .cls-9 {
        fill: #2d2b21;
      }

      .cls-10 {
        fill: #fff;
      }

      .cls-11 {
        fill: #3d2e17;
      }

      .cls-13 {
        fill: #453323;
      }

      .cls-14 {
        fill: #ef8d7d;
      }

      .cls-15 {
        fill: #1044a0;
        stroke: #143d84;
        opacity: 0.25;
      }

      .cls-16 {
        fill: none;
        stroke: #700418;
      }

      .cls-17 {
        fill: #6bcdf2;
        stroke: #245666;
      }
    </style>
  </defs>
  <path class="cls-1" d="M103.28,63A43.67,43.67,0,0,1,90.14,85.59l19.71,8.28L117,79.31Z"/>
  <g>
    <g>
      <polygon class="cls-1" points="87.95 122.34 79.1 129.29 83.29 134.52 92.62 133.76 90.62 127 87.95 122.34"/>
      <g>
        <path class="cls-1" d="M86.91,121.67s2-.19,5,2.19c0,0,5.14-.38,5.23,1.9s-5.9,1.43-5.9,1.43,3,3.91,2.19,8.09a2.73,2.73,0,0,1-3.71-.57s1,3-2.76,1.43c0,0-1,2.76-4.1.19s-4.38-4.28-1.52-5.14l2.19.76s-.86-3,3-1.52c0,0-1-3.14,1.9-1.81l3.62,3.9"/>
        <line class="cls-1" x1="83.1" y1="131.76" x2="86.91" y2="136.14"/>
        <line class="cls-1" x1="86.72" y1="130.05" x2="89.86" y2="135.09"/>
      </g>
      <g>
        <polygon class="cls-2" points="88.68 118.95 90.52 122.34 78.81 130.43 77.57 127.54 69.2 108.15 82.43 91.78 95.47 98.26 83 108.53 88.68 118.95"/>
        <polygon class="cls-3" points="90.52 122.34 78.81 130.43 77.57 127.54 88.68 118.95 90.52 122.34"/>
      </g>
      <path class="cls-1" d="M85.19,127s3.14,1.91,6,.19"/>
    </g>
    <g>
      <polygon class="cls-2" points="132.98 145.71 144.83 167.84 147.98 185.83 133.84 184.55 124.41 160.56 132.98 145.71"/>
      <g>
        <path class="cls-4" d="M186,207.45c-2.94,5.61-29.13,8.65-29.13,8.65l-11.25-23.38-.75-1.55-2.75-5.72,1.62-12.66v-.37l.18-8.77s-.14-2.6,3.67,6.83c.32.78.66,1.65,1,2.6.29.74.6,1.53.92,2.38,5.8,15.23,11.8,27,11.8,27a28.14,28.14,0,0,1,14.09-3.81C183.92,198.59,189,201.83,186,207.45Z"/>
        <path class="cls-4" d="M159.26,205.73s.09-2.67,4.19-4.19"/>
        <path class="cls-5" d="M145.62,192.72l3-19.64c-.37-1-.71-1.82-1-2.6l-2.73,20.69Z"/>
      </g>
      <path class="cls-2" d="M109.09,164s24.84,29.71,29.32,37.42c0,0,5-20.28,3.33-32.94l-9.61-16s-13-1.33-20.85,4S109.09,164,109.09,164Z"/>
      <path class="cls-4" d="M100,151s5.14,11.81,11.81,16.19c0,0-5.52-16.57,21.7-12.19l1-6.66-3-6.86-11.62,6.67Z"/>
      <g>
        <g>
          <path class="cls-4" d="M144.51,172.06l.24.68h0c.38,1,.82,2.1,1.31,3.27h0c4.75,11.6,13.71,29.61,13.71,29.61s10.8-6.79,22.67-4c0,0,5.39,1.57,5,6.63,0,.15,0,.31-.05.47-.81,5.43-5.48,11.18-17.18,11.7a26.46,26.46,0,0,0-9.41,3.07c-3.35,1.93-6.88,1.37-9-1.41a9.35,9.35,0,0,1-1.63-3.79c-.69-3.45-5-9-8.42-13L140.66,204c-1.85-2.09-3.21-3.51-3.21-3.51S142,177.07,140,165.66C140,165.66,140.57,161.23,144.51,172.06Z"/>
          <path class="cls-5" d="M187.4,208.23c0,.15,0,.31-.05.47-.81,5.43-5.48,11.18-17.18,11.7a26.46,26.46,0,0,0-9.41,3.07c-3.35,1.93-6.88,1.37-9-1.41,2,.41,5.6.49,11-1.74a60.09,60.09,0,0,1,12.83-2.58C181.48,217.18,185.79,210.94,187.4,208.23Z"/>
          <path class="cls-5" d="M144.75,172.75c.38,1,.82,2.1,1.31,3.27h0a126.17,126.17,0,0,1-4.33,29.25L140.66,204C141.88,198.2,144.51,184.49,144.75,172.75Z"/>
        </g>
        <path class="cls-4" d="M157.59,212.93s-.71-6,3.46-7.93"/>
      </g>
    </g>
    <path class="cls-2" d="M85.57,101.49s8,5.33,10.09,21.51-.19,24,3.43,27.23,26.66,1.71,32.37-8.76c0,0-5.14-30.84-16-47.22S92.62,81.69,92.62,81.69Z"/>
    <g>
      <g>
        <path class="cls-1" d="M82.7,135.25a7.85,7.85,0,0,1,5.59,3.17c2.11,3,1.91,5.06,3.65,6,0,0-.14,2.58-3.21,1.5,0,0,.81,2.6-.65,3.06a2.32,2.32,0,0,1-2.24-.24s-.45,3.81-4.24,2.13c0,0-.65,3.16-4,.8,0,0-1.46,3-4.6-1.34s-.73-10.26-.73-10.26l10.61-4.89"/>
        <path class="cls-1" d="M85.68,139.05s1.06,5,3,6.89"/>
      </g>
      <g>
        <path class="cls-2" d="M98.9,102.25l-1.19-3.91-.14-.47L78.34,108.53c-1,12.84,1.07,19.92,2.93,23.54a10.13,10.13,0,0,0,2.4,3.31c-3.43,5-13.33,6.85-13.33,6.85-.84-1.38-1.6-2.78-2.28-4.18a64.5,64.5,0,0,1-5.9-32.94c4.94-9.33,26.65-23,31.41-23.61a26.45,26.45,0,0,1,2.67-.22h0c3.94-.11,7.67,1.11,8,8.41C104.62,98.64,98.9,102.25,98.9,102.25Z"/>
        <path class="cls-3" d="M83.67,135.38c-3.43,5-13.33,6.85-13.33,6.85-.84-1.38-1.6-2.78-2.28-4.18,3.6-.75,9.27-2.44,13.21-6A10.13,10.13,0,0,0,83.67,135.38Z"/>
        <path class="cls-3" d="M98.9,102.25l-1.19-3.91c3.4-3.5,3.29-6.75,3.29-6.75a10.46,10.46,0,0,0-4.75-10.31c3.94-.11,7.67,1.11,8,8.41C104.62,98.64,98.9,102.25,98.9,102.25Z"/>
      </g>
    </g>
    <path class="cls-3" d="M121,104.44s-8.28,1.14-1.57,7c0,0-1.15,4.14,5.71,5.57l1.14,3.14s-9.14-1.86-8.71-8.28c0,0-7.43-5.72,2.28-10.14l1.72,2.85"/>
  </g>
  <g>
    <path class="cls-6" d="M93.57,81.5S76.24,90.07,68.63,99s-21.9,19.42-47.22,20.38c0,0-2.67-12.76,2.86-25.14L18,90.64s1.34-10.09,12.57-17.71L19.89,60.55s23,7.81,26.46-9.33C46.35,51.22,65.58,80.36,93.57,81.5Z"/>
    <path class="cls-7" d="M23.12,93.3s17.71,11.81,43.41,3.43C66.53,96.73,43.12,108,23.12,93.3Z"/>
    <path class="cls-7" d="M30.36,72.17S44.26,85.5,70.15,89.3C70.15,89.3,45,88,30.36,72.17Z"/>
    <path class="cls-7" d="M21,60.93s26.27,24.18,59.4,24C80.43,84.92,44.64,87,21,60.93Z"/>
  </g>
  <g>
    <g>
      <path class="cls-8" d="M127.49,76.61a13.93,13.93,0,0,0,5.2,7.53s.66.61,1.87-1.48S128.14,73.29,127.49,76.61Z"/>
      <path class="cls-1" d="M143.05,79.79c-2-.17-2.65-1.84-4.74,1.07-.74,1-1.29,1.73-1.69,2.21a4.89,4.89,0,0,1-1,1,15,15,0,0,1-7.85-8s0,.16,0,.37,0,.51.1.88c.26,2,1.11,6,3.79,8.65,0,0,.89,1.08,0,1.52a3,3,0,0,1-1.6.18c-3.18-.23-3.95,3.34-7.73,4.67s-10-2.36-13.85-7.51-8.2-13.79-6.55-23.59,17.47-26.37,17.47-26.37l9.71-2.53,8.1,2,16.42,11.83s2.28,11.25-2.63,16.45-7.86,6.81-6.84,11.82S145.07,80,143.05,79.79Z"/>
      <path class="cls-9" d="M118.61,12.07S125.42,4,139,10.2,157.08,25,157.08,25l-7.9-2.86S160.29,31.76,163.26,45s-11.94,17.24-11.94,17.24a17.48,17.48,0,0,0,2.5-7.52,18.68,18.68,0,0,0-1.67-8.41S153.36,57.11,147,52a34.36,34.36,0,0,1-9.18-11.24s-2.28,11.94-14.88,12.69L125.37,45A32.42,32.42,0,0,1,107,54.59l-3.62,7.46-6.3,8.81s-7-4.13-7.28-24.42,9.43-32.63,23.34-29.91c0,0-1.28-5.26-10.09-4.63C103,11.9,108.81,5.39,118.61,12.07Z"/>
      <g>
        <g>
          <ellipse class="cls-10" cx="138.29" cy="68.04" rx="5.53" ry="3.24" transform="translate(-8.09 116.26) rotate(-44.43)"/>
          <path class="cls-11" d="M140.6,70.38c-1.64,1.54-4.39,3.5-6.6,1.86-3.68-4.1,4.56-12.17,8.58-8.41,1.6,2.24-.42,4.94-2,6.55Zm-.07-.07c1.44-1.48,3.19-4.15,1.66-6.09-3.24-2.69-10.42,4.34-7.79,7.63,1.91,1.57,4.61-.12,6.13-1.54Z"/>
        </g>
        <ellipse class="cls-9" cx="139.16" cy="69.33" rx="3.62" ry="1.74" transform="translate(-8.75 117.23) rotate(-44.43)"/>
        <ellipse class="cls-10" cx="141.1" cy="67.59" rx="0.93" ry="0.59" transform="translate(-6.97 118.09) rotate(-44.43)"/>
        <path class="cls-9" d="M147.69,61.36s-.07-7.18-10.62-3a11.4,11.4,0,0,1,11.21-.95S151.53,59.76,147.69,61.36Z"/>
      </g>
      <g>
        <path class="cls-1" d="M108.66,55.16s.94-5.28-1.58-8S98.4,48.22,98,55.33s2,11,8.68,6.53"/>
        <path class="cls-1" d="M106,56.51s.91-8.52-4.17-6.33"/>
        <g>
          <path class="cls-12" d="M105.65,53.42A4.18,4.18,0,0,0,101.57,57"/>
          <path class="cls-13" d="M105.65,53.44A6.74,6.74,0,0,0,101.59,57a4,4,0,0,1,1.32-2.58,3.92,3.92,0,0,1,2.74-1Z"/>
        </g>
      </g>
      <g>
        <path class="cls-12" d="M129.22,74.82a2.89,2.89,0,0,1-4,.58"/>
        <path class="cls-13" d="M129.24,74.83c-.44,1.74-3,2-4,.59l0,0a3.53,3.53,0,0,0,2.08.45,3.19,3.19,0,0,0,1.88-1Z"/>
      </g>
      <path class="cls-14" d="M136.62,83.07a4.89,4.89,0,0,1-1,1,15,15,0,0,1-7.85-8s0,.16,0,.37c-.07-.39-.09-.61-.09-.61a20.39,20.39,0,0,0,7.08,6.36c2.39,1.08,1.78.83,1.78.83Z"/>
      <path class="cls-14" d="M127.67,76.33a4.16,4.16,0,0,0,0,.5l-.13-.22Z"/>
      <path class="cls-14" d="M131.74,87.51a11.16,11.16,0,0,1-2.14-2.67,14.3,14.3,0,0,1-2-8l.3.51c.26,2,1.11,6,3.79,8.65C131.72,86,132.61,87.07,131.74,87.51Z"/>
    </g>
    <g>
      <path class="cls-15" d="M111.3,51.8l5.7,3s3.55-1.57,16.83,3.14,13,8.66,9.43,14.2a2.44,2.44,0,0,0-3.55,1.58c-1,2.88-11.89-1.11-23.7-16.36l-6.62-3.66Z"/>
      <path class="cls-16" d="M111.3,51.8l5.7,3s3.55-1.57,16.83,3.14,13,8.66,9.43,14.2a2.44,2.44,0,0,0-3.55,1.58c-1,2.88-11.89-1.11-23.7-16.36l-6.62-3.66Z"/>
    </g>
  </g>
  <g>
    <path class="cls-17" d="M132.24,142.56s-.67.69-1.82,1.68c-.63.55-1.41,1.19-2.31,1.87a35.57,35.57,0,0,1-7.08,4.25,22.66,22.66,0,0,1-2.5.91l-.15,0a34.06,34.06,0,0,1-9,1c-1,0-2.06,0-3-.07-3.56-.17-6.21-.58-6.21-.58s-3.13-2.43-2.28-5.28a40.47,40.47,0,0,0,6.53.45c.91,0,1.9,0,2.94-.1a46.24,46.24,0,0,0,8.95-1.4c.88-.22,1.78-.49,2.68-.8a36.22,36.22,0,0,0,7.41-3.39c.8-.48,1.6-1,2.39-1.58s1.5-1.13,2.23-1.75C131,137.85,132.09,138.85,132.24,142.56Z"/>
    <path class="cls-4" d="M109.33,152.35c-1,0-2.06,0-3-.07l-2-5.41c.91,0,1.9,0,2.94-.1Z"/>
    <path class="cls-4" d="M121,150.36a22.66,22.66,0,0,1-2.5.91l-.15,0-2.14-5.94c.88-.22,1.78-.49,2.68-.8Z"/>
    <path class="cls-4" d="M130.42,144.24c-.63.55-1.41,1.19-2.31,1.87l-1.78-4.93c.8-.48,1.6-1,2.39-1.58Z"/>
  </g>
  <path class="cls-2" d="M128.84,147.85a49.94,49.94,0,0,1,5.43,8"/>
</svg>
